<?xml version="1.0" encoding="utf-8" standalone="no"?>
<!DOCTYPE svg PUBLIC "-//W3C//DTD SVG 1.1//EN"
  "http://www.w3.org/Graphics/SVG/1.1/DTD/svg11.dtd">
<!-- Created with matplotlib (https://matplotlib.org/) -->
<svg height="864pt" version="1.1" viewBox="0 0 1440 864" width="1440pt" xmlns="http://www.w3.org/2000/svg" xmlns:xlink="http://www.w3.org/1999/xlink">
 <defs>
  <style type="text/css">
*{stroke-linecap:butt;stroke-linejoin:round;}
  </style>
 </defs>
 <g id="figure_1">
  <g id="patch_1">
   <path d="M 0 864 
L 1440 864 
L 1440 0 
L 0 0 
z
" style="fill:#ffffff;"/>
  </g>
  <g id="axes_1">
   <g id="patch_2">
    <path d="M 180 768.96 
L 1296 768.96 
L 1296 103.68 
L 180 103.68 
z
" style="fill:#ffffff;"/>
   </g>
   <g id="matplotlib.axis_1">
    <g id="xtick_1">
     <g id="line2d_1">
      <defs>
       <path d="M 0 0 
L 0 3.5 
" id="m08bb2d7e3f" style="stroke:#000000;stroke-width:0.8;"/>
      </defs>
      <g>
       <use style="stroke:#000000;stroke-width:0.8;" x="180" xlink:href="#m08bb2d7e3f" y="768.96"/>
      </g>
     </g>
     <g id="text_1">
      <!-- 0 -->
      <defs>
       <path d="M 31.78125 66.40625 
Q 24.171875 66.40625 20.328125 58.90625 
Q 16.5 51.421875 16.5 36.375 
Q 16.5 21.390625 20.328125 13.890625 
Q 24.171875 6.390625 31.78125 6.390625 
Q 39.453125 6.390625 43.28125 13.890625 
Q 47.125 21.390625 47.125 36.375 
Q 47.125 51.421875 43.28125 58.90625 
Q 39.453125 66.40625 31.78125 66.40625 
z
M 31.78125 74.21875 
Q 44.046875 74.21875 50.515625 64.515625 
Q 56.984375 54.828125 56.984375 36.375 
Q 56.984375 17.96875 50.515625 8.265625 
Q 44.046875 -1.421875 31.78125 -1.421875 
Q 19.53125 -1.421875 13.0625 8.265625 
Q 6.59375 17.96875 6.59375 36.375 
Q 6.59375 54.828125 13.0625 64.515625 
Q 19.53125 74.21875 31.78125 74.21875 
z
" id="DejaVuSans-48"/>
      </defs>
      <g transform="translate(176.81875 783.558437)scale(0.1 -0.1)">
       <use xlink:href="#DejaVuSans-48"/>
      </g>
     </g>
    </g>
    <g id="xtick_2">
     <g id="line2d_2">
      <g>
       <use style="stroke:#000000;stroke-width:0.8;" x="409.393628" xlink:href="#m08bb2d7e3f" y="768.96"/>
      </g>
     </g>
     <g id="text_2">
      <!-- 200 -->
      <defs>
       <path d="M 19.1875 8.296875 
L 53.609375 8.296875 
L 53.609375 0 
L 7.328125 0 
L 7.328125 8.296875 
Q 12.9375 14.109375 22.625 23.890625 
Q 32.328125 33.6875 34.8125 36.53125 
Q 39.546875 41.84375 41.421875 45.53125 
Q 43.3125 49.21875 43.3125 52.78125 
Q 43.3125 58.59375 39.234375 62.25 
Q 35.15625 65.921875 28.609375 65.921875 
Q 23.96875 65.921875 18.8125 64.3125 
Q 13.671875 62.703125 7.8125 59.421875 
L 7.8125 69.390625 
Q 13.765625 71.78125 18.9375 73 
Q 24.125 74.21875 28.421875 74.21875 
Q 39.75 74.21875 46.484375 68.546875 
Q 53.21875 62.890625 53.21875 53.421875 
Q 53.21875 48.921875 51.53125 44.890625 
Q 49.859375 40.875 45.40625 35.40625 
Q 44.1875 33.984375 37.640625 27.21875 
Q 31.109375 20.453125 19.1875 8.296875 
z
" id="DejaVuSans-50"/>
      </defs>
      <g transform="translate(399.849878 783.558437)scale(0.1 -0.1)">
       <use xlink:href="#DejaVuSans-50"/>
       <use x="63.623047" xlink:href="#DejaVuSans-48"/>
       <use x="127.246094" xlink:href="#DejaVuSans-48"/>
      </g>
     </g>
    </g>
    <g id="xtick_3">
     <g id="line2d_3">
      <g>
       <use style="stroke:#000000;stroke-width:0.8;" x="638.787256" xlink:href="#m08bb2d7e3f" y="768.96"/>
      </g>
     </g>
     <g id="text_3">
      <!-- 400 -->
      <defs>
       <path d="M 37.796875 64.3125 
L 12.890625 25.390625 
L 37.796875 25.390625 
z
M 35.203125 72.90625 
L 47.609375 72.90625 
L 47.609375 25.390625 
L 58.015625 25.390625 
L 58.015625 17.1875 
L 47.609375 17.1875 
L 47.609375 0 
L 37.796875 0 
L 37.796875 17.1875 
L 4.890625 17.1875 
L 4.890625 26.703125 
z
" id="DejaVuSans-52"/>
      </defs>
      <g transform="translate(629.243506 783.558437)scale(0.1 -0.1)">
       <use xlink:href="#DejaVuSans-52"/>
       <use x="63.623047" xlink:href="#DejaVuSans-48"/>
       <use x="127.246094" xlink:href="#DejaVuSans-48"/>
      </g>
     </g>
    </g>
    <g id="xtick_4">
     <g id="line2d_4">
      <g>
       <use style="stroke:#000000;stroke-width:0.8;" x="868.180884" xlink:href="#m08bb2d7e3f" y="768.96"/>
      </g>
     </g>
     <g id="text_4">
      <!-- 600 -->
      <defs>
       <path d="M 33.015625 40.375 
Q 26.375 40.375 22.484375 35.828125 
Q 18.609375 31.296875 18.609375 23.390625 
Q 18.609375 15.53125 22.484375 10.953125 
Q 26.375 6.390625 33.015625 6.390625 
Q 39.65625 6.390625 43.53125 10.953125 
Q 47.40625 15.53125 47.40625 23.390625 
Q 47.40625 31.296875 43.53125 35.828125 
Q 39.65625 40.375 33.015625 40.375 
z
M 52.59375 71.296875 
L 52.59375 62.3125 
Q 48.875 64.0625 45.09375 64.984375 
Q 41.3125 65.921875 37.59375 65.921875 
Q 27.828125 65.921875 22.671875 59.328125 
Q 17.53125 52.734375 16.796875 39.40625 
Q 19.671875 43.65625 24.015625 45.921875 
Q 28.375 48.1875 33.59375 48.1875 
Q 44.578125 48.1875 50.953125 41.515625 
Q 57.328125 34.859375 57.328125 23.390625 
Q 57.328125 12.15625 50.6875 5.359375 
Q 44.046875 -1.421875 33.015625 -1.421875 
Q 20.359375 -1.421875 13.671875 8.265625 
Q 6.984375 17.96875 6.984375 36.375 
Q 6.984375 53.65625 15.1875 63.9375 
Q 23.390625 74.21875 37.203125 74.21875 
Q 40.921875 74.21875 44.703125 73.484375 
Q 48.484375 72.75 52.59375 71.296875 
z
" id="DejaVuSans-54"/>
      </defs>
      <g transform="translate(858.637134 783.558437)scale(0.1 -0.1)">
       <use xlink:href="#DejaVuSans-54"/>
       <use x="63.623047" xlink:href="#DejaVuSans-48"/>
       <use x="127.246094" xlink:href="#DejaVuSans-48"/>
      </g>
     </g>
    </g>
    <g id="xtick_5">
     <g id="line2d_5">
      <g>
       <use style="stroke:#000000;stroke-width:0.8;" x="1097.574512" xlink:href="#m08bb2d7e3f" y="768.96"/>
      </g>
     </g>
     <g id="text_5">
      <!-- 800 -->
      <defs>
       <path d="M 31.78125 34.625 
Q 24.75 34.625 20.71875 30.859375 
Q 16.703125 27.09375 16.703125 20.515625 
Q 16.703125 13.921875 20.71875 10.15625 
Q 24.75 6.390625 31.78125 6.390625 
Q 38.8125 6.390625 42.859375 10.171875 
Q 46.921875 13.96875 46.921875 20.515625 
Q 46.921875 27.09375 42.890625 30.859375 
Q 38.875 34.625 31.78125 34.625 
z
M 21.921875 38.8125 
Q 15.578125 40.375 12.03125 44.71875 
Q 8.5 49.078125 8.5 55.328125 
Q 8.5 64.0625 14.71875 69.140625 
Q 20.953125 74.21875 31.78125 74.21875 
Q 42.671875 74.21875 48.875 69.140625 
Q 55.078125 64.0625 55.078125 55.328125 
Q 55.078125 49.078125 51.53125 44.71875 
Q 48 40.375 41.703125 38.8125 
Q 48.828125 37.15625 52.796875 32.3125 
Q 56.78125 27.484375 56.78125 20.515625 
Q 56.78125 9.90625 50.3125 4.234375 
Q 43.84375 -1.421875 31.78125 -1.421875 
Q 19.734375 -1.421875 13.25 4.234375 
Q 6.78125 9.90625 6.78125 20.515625 
Q 6.78125 27.484375 10.78125 32.3125 
Q 14.796875 37.15625 21.921875 38.8125 
z
M 18.3125 54.390625 
Q 18.3125 48.734375 21.84375 45.5625 
Q 25.390625 42.390625 31.78125 42.390625 
Q 38.140625 42.390625 41.71875 45.5625 
Q 45.3125 48.734375 45.3125 54.390625 
Q 45.3125 60.0625 41.71875 63.234375 
Q 38.140625 66.40625 31.78125 66.40625 
Q 25.390625 66.40625 21.84375 63.234375 
Q 18.3125 60.0625 18.3125 54.390625 
z
" id="DejaVuSans-56"/>
      </defs>
      <g transform="translate(1088.030762 783.558437)scale(0.1 -0.1)">
       <use xlink:href="#DejaVuSans-56"/>
       <use x="63.623047" xlink:href="#DejaVuSans-48"/>
       <use x="127.246094" xlink:href="#DejaVuSans-48"/>
      </g>
     </g>
    </g>
   </g>
   <g id="matplotlib.axis_2">
    <g id="ytick_1">
     <g id="line2d_6">
      <defs>
       <path d="M 0 0 
L -3.5 0 
" id="m47a5ff1f20" style="stroke:#000000;stroke-width:0.8;"/>
      </defs>
      <g>
       <use style="stroke:#000000;stroke-width:0.8;" x="180" xlink:href="#m47a5ff1f20" y="738.72"/>
      </g>
     </g>
     <g id="text_6">
      <!-- 0 -->
      <g transform="translate(166.6375 742.519219)scale(0.1 -0.1)">
       <use xlink:href="#DejaVuSans-48"/>
      </g>
     </g>
    </g>
    <g id="ytick_2">
     <g id="line2d_7">
      <g>
       <use style="stroke:#000000;stroke-width:0.8;" x="180" xlink:href="#m47a5ff1f20" y="614.403453"/>
      </g>
     </g>
     <g id="text_7">
      <!-- 200 -->
      <g transform="translate(153.9125 618.202672)scale(0.1 -0.1)">
       <use xlink:href="#DejaVuSans-50"/>
       <use x="63.623047" xlink:href="#DejaVuSans-48"/>
       <use x="127.246094" xlink:href="#DejaVuSans-48"/>
      </g>
     </g>
    </g>
    <g id="ytick_3">
     <g id="line2d_8">
      <g>
       <use style="stroke:#000000;stroke-width:0.8;" x="180" xlink:href="#m47a5ff1f20" y="490.086906"/>
      </g>
     </g>
     <g id="text_8">
      <!-- 400 -->
      <g transform="translate(153.9125 493.886125)scale(0.1 -0.1)">
       <use xlink:href="#DejaVuSans-52"/>
       <use x="63.623047" xlink:href="#DejaVuSans-48"/>
       <use x="127.246094" xlink:href="#DejaVuSans-48"/>
      </g>
     </g>
    </g>
    <g id="ytick_4">
     <g id="line2d_9">
      <g>
       <use style="stroke:#000000;stroke-width:0.8;" x="180" xlink:href="#m47a5ff1f20" y="365.77036"/>
      </g>
     </g>
     <g id="text_9">
      <!-- 600 -->
      <g transform="translate(153.9125 369.569578)scale(0.1 -0.1)">
       <use xlink:href="#DejaVuSans-54"/>
       <use x="63.623047" xlink:href="#DejaVuSans-48"/>
       <use x="127.246094" xlink:href="#DejaVuSans-48"/>
      </g>
     </g>
    </g>
    <g id="ytick_5">
     <g id="line2d_10">
      <g>
       <use style="stroke:#000000;stroke-width:0.8;" x="180" xlink:href="#m47a5ff1f20" y="241.453813"/>
      </g>
     </g>
     <g id="text_10">
      <!-- 800 -->
      <g transform="translate(153.9125 245.253032)scale(0.1 -0.1)">
       <use xlink:href="#DejaVuSans-56"/>
       <use x="63.623047" xlink:href="#DejaVuSans-48"/>
       <use x="127.246094" xlink:href="#DejaVuSans-48"/>
      </g>
     </g>
    </g>
    <g id="ytick_6">
     <g id="line2d_11">
      <g>
       <use style="stroke:#000000;stroke-width:0.8;" x="180" xlink:href="#m47a5ff1f20" y="117.137266"/>
      </g>
     </g>
     <g id="text_11">
      <!-- 1000 -->
      <defs>
       <path d="M 12.40625 8.296875 
L 28.515625 8.296875 
L 28.515625 63.921875 
L 10.984375 60.40625 
L 10.984375 69.390625 
L 28.421875 72.90625 
L 38.28125 72.90625 
L 38.28125 8.296875 
L 54.390625 8.296875 
L 54.390625 0 
L 12.40625 0 
z
" id="DejaVuSans-49"/>
      </defs>
      <g transform="translate(147.55 120.936485)scale(0.1 -0.1)">
       <use xlink:href="#DejaVuSans-49"/>
       <use x="63.623047" xlink:href="#DejaVuSans-48"/>
       <use x="127.246094" xlink:href="#DejaVuSans-48"/>
       <use x="190.869141" xlink:href="#DejaVuSans-48"/>
      </g>
     </g>
    </g>
   </g>
   <g id="line2d_12">
    <path clip-path="url(#pf2c5402fdd)" d="M 180 738.72 
L 1296 133.92 
L 1296 133.92 
" style="fill:none;stroke:#1f77b4;stroke-linecap:square;stroke-width:1.5;"/>
   </g>
   <g id="line2d_13">
    <path clip-path="url(#pf2c5402fdd)" d="M 180 731.404593 
L 182.293936 731.251683 
L 183.440904 731.495344 
L 184.587873 731.503424 
L 185.734841 731.684927 
L 186.881809 731.519586 
L 188.028777 731.544449 
L 189.175745 731.325652 
L 190.322713 731.466129 
L 192.61665 731.38781 
L 194.910586 731.87886 
L 196.057554 731.697358 
L 197.204522 731.693007 
L 198.35149 731.845917 
L 205.233299 731.866429 
L 206.380267 731.581744 
L 207.527235 731.136069 
L 208.674203 731.107476 
L 209.821172 731.717871 
L 210.96814 731.763246 
L 212.115108 731.697358 
L 213.262076 731.280276 
L 214.409044 731.416403 
L 218.996917 731.239252 
L 220.143885 731.408322 
L 221.290853 731.400242 
L 222.437821 731.519586 
L 223.584789 731.519586 
L 224.731757 731.346786 
L 229.31963 731.309491 
L 231.613566 731.458049 
L 243.083248 731.193876 
L 244.230216 731.342435 
L 252.258993 731.267845 
L 254.552929 731.495344 
L 264.875642 731.519586 
L 274.051387 731.214388 
L 276.345324 731.288978 
L 279.786228 731.297059 
L 282.080164 731.379729 
L 287.815005 731.383459 
L 290.108941 731.376 
L 291.25591 731.581122 
L 295.843782 731.446239 
L 296.99075 731.282141 
L 299.284687 731.343056 
L 302.725591 731.502181 
L 305.019527 731.413295 
L 306.166495 731.343056 
L 308.460432 731.380351 
L 313.048304 731.324409 
L 314.195272 731.417646 
L 321.077081 731.338705 
L 326.811922 731.366676 
L 330.252826 731.212524 
L 331.399794 731.077019 
L 332.546763 730.806009 
L 335.987667 731.039724 
L 347.457348 731.053399 
L 353.192189 730.964512 
L 361.220966 731.034751 
L 364.661871 731.021076 
L 384.160329 731.095666 
L 386.454265 731.109341 
L 392.189106 731.058371 
L 405.952724 730.927217 
L 407.099692 730.81036 
L 408.24666 730.829007 
L 411.687564 730.656207 
L 415.128469 730.731419 
L 416.275437 730.63756 
L 419.716341 730.712771 
L 422.010277 730.548673 
L 423.157246 730.698475 
L 424.304214 730.693502 
L 425.451182 730.917894 
L 427.745118 731.001807 
L 428.892086 731.114314 
L 433.479959 731.127988 
L 436.920863 731.212524 
L 440.361768 731.090694 
L 448.390545 731.118665 
L 449.537513 730.98316 
L 450.684481 731.058371 
L 458.713258 730.899246 
L 461.007194 730.936541 
L 479.358684 730.969485 
L 496.563207 731.244846 
L 497.710175 731.348029 
L 502.298047 731.240495 
L 504.591984 731.333732 
L 506.88592 731.170256 
L 516.061665 731.45059 
L 519.502569 731.754544 
L 521.796506 731.712276 
L 528.678314 731.674981 
L 534.413155 731.8944 
L 535.560123 731.829134 
L 536.707091 731.614066 
L 540.147996 731.614066 
L 542.441932 731.702953 
L 543.5889 731.693629 
L 544.735868 731.511505 
L 545.882837 731.492858 
L 547.029805 730.766227 
L 549.323741 730.821548 
L 551.617677 730.791091 
L 556.20555 730.821548 
L 557.352518 730.766227 
L 563.087359 731.123016 
L 573.410072 730.871275 
L 576.850976 730.999942 
L 580.291881 730.969485 
L 581.438849 731.012374 
L 582.585817 730.846412 
L 583.732785 730.809738 
L 586.026721 730.360334 
L 587.17369 730.255908 
L 588.320658 730.385197 
L 589.467626 730.298797 
L 591.761562 730.446734 
L 592.90853 730.311229 
L 595.202467 730.489623 
L 600.937307 730.45295 
L 603.231244 730.803522 
L 605.52518 730.803522 
L 610.113052 730.994348 
L 614.700925 731.024806 
L 619.288798 731.049669 
L 620.435766 730.858843 
L 622.729702 730.748201 
L 627.317575 730.858843 
L 628.464543 730.704691 
L 630.758479 730.815954 
L 631.905447 730.704691 
L 641.081192 730.797306 
L 649.109969 730.803522 
L 651.403905 730.661801 
L 657.138746 730.729554 
L 659.432682 730.643776 
L 662.873587 730.809738 
L 666.314491 730.815954 
L 669.755396 731.006158 
L 677.784173 730.950837 
L 678.931141 730.846412 
L 680.078109 730.969485 
L 681.225077 730.969485 
L 682.372045 731.098774 
L 683.519013 730.858843 
L 685.81295 730.760633 
L 686.959918 730.582239 
L 688.106886 730.686665 
L 690.400822 730.661801 
L 692.694758 730.760633 
L 696.135663 730.772443 
L 697.282631 730.618912 
L 698.429599 730.748201 
L 701.870504 730.741986 
L 703.017472 730.877491 
L 724.809866 730.907948 
L 725.956835 730.710906 
L 728.250771 730.778659 
L 729.397739 730.710906 
L 730.544707 730.784875 
L 732.838643 730.576023 
L 733.985612 730.576023 
L 735.13258 730.865059 
L 736.279548 730.784875 
L 737.426516 730.372765 
L 738.573484 730.32366 
L 739.720452 730.470976 
L 740.86742 730.440518 
L 742.014388 730.655586 
L 748.896197 730.446734 
L 752.337102 731.037237 
L 760.365879 731.055885 
L 771.83556 731.098774 
L 778.717369 731.184553 
L 779.864337 731.517099 
L 783.305242 731.602878 
L 786.746146 731.517099 
L 789.040082 731.627741 
L 790.18705 731.646388 
L 792.480987 731.394026 
L 797.068859 731.615309 
L 799.362795 731.461778 
L 801.656732 731.584852 
L 802.8037 731.473588 
L 805.097636 731.602878 
L 806.244604 731.578636 
L 807.391572 731.935424 
L 810.832477 732.052282 
L 813.126413 731.996961 
L 818.861254 732.033635 
L 821.15519 732.014987 
L 823.449126 732.027419 
L 826.890031 732.131845 
L 829.183967 732.175355 
L 830.330935 732.298429 
L 833.77184 732.107603 
L 841.800617 732.439528 
L 844.094553 732.384207 
L 845.241521 732.617922 
L 848.682425 732.716132 
L 850.976362 732.888932 
L 852.12333 732.956063 
L 854.417266 732.839206 
L 855.564234 733.00579 
L 857.858171 732.993358 
L 860.152107 732.956063 
L 861.299075 732.814964 
L 868.180884 732.852259 
L 870.47482 732.777669 
L 871.621788 732.584978 
L 875.062693 732.491741 
L 877.356629 732.510388 
L 879.650565 732.398504 
L 881.944502 732.634705 
L 884.238438 732.560115 
L 885.385406 732.435799 
L 889.973279 732.516604 
L 891.120247 732.466878 
L 892.267215 732.566331 
L 893.414183 732.466878 
L 894.561151 732.516604 
L 895.708119 732.410935 
L 899.149024 732.460662 
L 900.295992 732.317698 
L 903.736896 732.305266 
L 904.883864 732.398504 
L 906.030832 732.29905 
L 907.177801 732.354993 
L 908.324769 732.274187 
L 909.471737 732.429583 
L 912.912641 732.392288 
L 914.059609 732.491741 
L 915.206578 732.479309 
L 916.353546 732.323914 
L 922.088386 732.367424 
L 923.235355 732.199597 
L 924.382323 732.286619 
L 927.823227 732.118791 
L 928.970195 732.404719 
L 931.264132 732.398504 
L 932.4111 732.628489 
L 933.558068 732.485525 
L 935.852004 732.473094 
L 936.998972 732.323914 
L 938.14594 732.386072 
L 940.439877 732.118791 
L 941.586845 732.22446 
L 942.733813 732.044201 
L 945.027749 731.932317 
L 946.174717 732.013122 
L 948.468654 731.895022 
L 949.615622 731.950964 
L 950.76259 731.770705 
L 955.350462 731.845295 
L 956.497431 732.037986 
L 958.791367 731.994475 
L 959.938335 732.069065 
L 963.379239 731.95718 
L 965.673176 732.093928 
L 972.554985 732.112576 
L 973.701953 732.062849 
L 974.848921 731.870158 
L 977.142857 731.88259 
L 981.73073 732.056633 
L 986.318602 732.019338 
L 987.46557 732.149871 
L 988.612539 732.168518 
L 990.906475 732.460662 
L 994.347379 732.709295 
L 997.788284 732.690647 
L 1001.229188 732.516604 
L 1005.817061 732.473094 
L 1010.404933 732.398504 
L 1011.551901 732.236892 
L 1014.992806 732.336345 
L 1017.286742 732.193381 
L 1018.43371 732.243108 
L 1019.580678 732.143655 
L 1020.727646 732.193381 
L 1021.874615 732.050417 
L 1027.609455 731.994475 
L 1028.756423 732.093928 
L 1029.903392 731.982043 
L 1033.344296 732.013122 
L 1034.491264 731.876374 
L 1035.638232 731.310734 
L 1036.7852 731.478561 
L 1037.932169 731.366676 
L 1039.079137 731.422619 
L 1040.226105 731.248576 
L 1044.813977 731.335597 
L 1045.960946 731.571799 
L 1051.695786 731.615309 
L 1052.842754 731.515856 
L 1057.430627 731.640173 
L 1058.577595 731.863942 
L 1060.871531 731.832863 
L 1062.018499 731.863942 
L 1064.312436 731.609094 
L 1066.606372 731.571799 
L 1067.75334 731.441266 
L 1068.900308 731.43505 
L 1071.194245 731.58423 
L 1074.635149 731.590446 
L 1075.782117 731.292086 
L 1078.076053 731.31695 
L 1079.223022 731.254791 
L 1080.36999 731.441266 
L 1083.810894 731.546935 
L 1084.957862 731.683683 
L 1086.10483 731.58423 
L 1087.251799 731.279655 
L 1091.839671 731.808 
L 1092.986639 731.683683 
L 1111.338129 731.708547 
L 1115.926002 731.503424 
L 1117.07297 731.621525 
L 1120.513875 731.39154 
L 1123.954779 731.335597 
L 1125.101747 731.136691 
L 1127.395683 731.24236 
L 1128.542652 731.472345 
L 1137.718397 731.528288 
L 1138.865365 731.65882 
L 1152.628983 731.515856 
L 1153.775951 731.335597 
L 1158.363823 731.341813 
L 1162.951696 731.826647 
L 1164.098664 731.839079 
L 1166.3926 731.652604 
L 1168.686536 731.677468 
L 1172.127441 731.745842 
L 1174.421377 731.652604 
L 1177.862282 731.515856 
L 1179.00925 731.696115 
L 1185.891059 731.665036 
L 1190.478931 731.416403 
L 1193.919836 731.261007 
L 1197.36074 731.304518 
L 1199.654676 731.292086 
L 1200.801644 731.416403 
L 1203.095581 731.379108 
L 1204.242549 731.279655 
L 1207.683453 731.323165 
L 1209.97739 731.285871 
L 1212.271326 730.676719 
L 1214.565262 730.589698 
L 1215.71223 730.533755 
L 1216.859198 730.776173 
L 1219.153135 730.682935 
L 1220.300103 730.726446 
L 1221.447071 730.583482 
L 1223.741007 730.825899 
L 1224.887975 730.782388 
L 1227.181912 730.944 
L 1228.32888 730.79482 
L 1229.475848 730.801036 
L 1230.622816 730.670504 
L 1232.916752 730.788604 
L 1236.357657 731.111827 
L 1243.239466 731.236144 
L 1245.533402 731.267223 
L 1247.827338 731.223712 
L 1254.709147 731.416403 
L 1257.003083 731.310734 
L 1261.590956 731.323165 
L 1262.737924 731.186417 
L 1263.884892 731.180201 
L 1265.03186 731.01859 
L 1268.472765 730.999942 
L 1269.619733 731.136691 
L 1273.060637 731.080748 
L 1282.236382 731.031022 
L 1296 731.031022 
L 1296 731.031022 
" style="fill:none;stroke:#ff7f0e;stroke-linecap:square;stroke-width:1.5;"/>
   </g>
   <g id="line2d_14">
    <path clip-path="url(#pf2c5402fdd)" d="M 180 736.489761 
L 184.587873 736.506544 
L 186.881809 736.588593 
L 194.910586 736.698613 
L 197.204522 736.682452 
L 199.498458 736.781283 
L 202.939363 736.808633 
L 212.115108 736.758906 
L 223.584789 736.770095 
L 224.731757 736.671263 
L 232.760534 736.698613 
L 236.201439 736.665669 
L 257.993834 736.643914 
L 264.875642 736.715396 
L 324.517986 736.61097 
L 331.399794 736.520219 
L 347.457348 736.491004 
L 350.898253 736.376012 
L 352.045221 736.295206 
L 356.633094 736.381606 
L 381.866393 736.537623 
L 408.24666 736.48541 
L 411.687564 736.49722 
L 422.010277 736.474222 
L 425.451182 736.422009 
L 431.186023 736.318204 
L 435.773895 736.376012 
L 439.2148 736.381606 
L 441.508736 736.306394 
L 451.831449 736.474222 
L 501.151079 736.3008 
L 508.032888 736.329393 
L 511.473792 736.260397 
L 567.675231 736.427603 
L 577.997945 736.427603 
L 590.614594 736.39901 
L 620.435766 736.173997 
L 629.611511 736.310124 
L 644.522097 736.233047 
L 647.963001 736.215643 
L 660.579651 736.298314 
L 666.314491 736.304529 
L 692.694758 736.35177 
L 696.135663 736.33996 
L 701.870504 736.345554 
L 706.458376 736.215643 
L 712.193217 736.274694 
L 717.928058 736.227453 
L 746.602261 736.262883 
L 752.337102 736.156593 
L 759.218911 735.871908 
L 764.953751 735.948984 
L 766.100719 735.765617 
L 768.394656 735.90796 
L 770.688592 736.114947 
L 772.982528 736.162187 
L 799.362795 736.239263 
L 801.656732 736.31634 
L 860.152107 736.417036 
L 883.09147 736.576783 
L 885.385406 736.546947 
L 889.973279 736.588593 
L 893.414183 736.452466 
L 900.295992 736.476086 
L 902.589928 736.507165 
L 926.676259 736.420144 
L 930.117163 736.407712 
L 950.76259 736.333122 
L 951.909558 736.413928 
L 954.203494 736.357986 
L 958.791367 736.283396 
L 959.938335 736.221237 
L 962.232271 736.233669 
L 964.526208 736.233669 
L 969.11408 736.233669 
L 973.701953 736.264748 
L 977.142857 736.333122 
L 997.788284 736.314475 
L 1017.286742 736.451223 
L 1020.727646 736.333122 
L 1026.462487 736.320691 
L 1032.197328 736.252317 
L 1035.638232 736.302043 
L 1039.079137 736.233669 
L 1052.842754 736.221237 
L 1053.989723 736.196374 
L 1055.136691 736.05341 
L 1056.283659 736.128 
L 1062.018499 735.941525 
L 1064.312436 736.009899 
L 1065.459404 736.128 
L 1095.280576 736.022331 
L 1098.72148 736.034763 
L 1101.015416 736.084489 
L 1109.044193 736.208806 
L 1114.779034 736.308259 
L 1122.807811 736.314475 
L 1134.277492 736.283396 
L 1148.04111 736.221237 
L 1149.188078 736.339338 
L 1222.594039 736.27718 
L 1223.741007 736.177727 
L 1226.034943 736.270964 
L 1229.475848 736.072058 
L 1230.622816 736.040978 
L 1231.769784 735.860719 
L 1235.210689 735.929094 
L 1237.504625 735.935309 
L 1246.68037 736.022331 
L 1250.121274 735.817209 
L 1254.709147 736.022331 
L 1278.795478 736.134216 
L 1281.089414 736.040978 
L 1284.530319 735.929094 
L 1296 735.97882 
L 1296 735.97882 
" style="fill:none;stroke:#2ca02c;stroke-linecap:square;stroke-width:1.5;"/>
   </g>
   <g id="patch_3">
    <path d="M 180 768.96 
L 180 103.68 
" style="fill:none;stroke:#000000;stroke-linecap:square;stroke-linejoin:miter;stroke-width:0.8;"/>
   </g>
   <g id="patch_4">
    <path d="M 1296 768.96 
L 1296 103.68 
" style="fill:none;stroke:#000000;stroke-linecap:square;stroke-linejoin:miter;stroke-width:0.8;"/>
   </g>
   <g id="patch_5">
    <path d="M 180 768.96 
L 1296 768.96 
" style="fill:none;stroke:#000000;stroke-linecap:square;stroke-linejoin:miter;stroke-width:0.8;"/>
   </g>
   <g id="patch_6">
    <path d="M 180 103.68 
L 1296 103.68 
" style="fill:none;stroke:#000000;stroke-linecap:square;stroke-linejoin:miter;stroke-width:0.8;"/>
   </g>
   <g id="legend_1">
    <g id="patch_7">
     <path d="M 187 156.270625 
L 280.273438 156.270625 
Q 282.273438 156.270625 282.273438 154.270625 
L 282.273438 110.68 
Q 282.273438 108.68 280.273438 108.68 
L 187 108.68 
Q 185 108.68 185 110.68 
L 185 154.270625 
Q 185 156.270625 187 156.270625 
z
" style="fill:#ffffff;opacity:0.8;stroke:#cccccc;stroke-linejoin:miter;"/>
    </g>
    <g id="line2d_15">
     <path d="M 189 116.778437 
L 209 116.778437 
" style="fill:none;stroke:#1f77b4;stroke-linecap:square;stroke-width:1.5;"/>
    </g>
    <g id="line2d_16"/>
    <g id="text_12">
     <!-- Unnamed: 0 -->
     <defs>
      <path d="M 8.6875 72.90625 
L 18.609375 72.90625 
L 18.609375 28.609375 
Q 18.609375 16.890625 22.84375 11.734375 
Q 27.09375 6.59375 36.625 6.59375 
Q 46.09375 6.59375 50.34375 11.734375 
Q 54.59375 16.890625 54.59375 28.609375 
L 54.59375 72.90625 
L 64.5 72.90625 
L 64.5 27.390625 
Q 64.5 13.140625 57.4375 5.859375 
Q 50.390625 -1.421875 36.625 -1.421875 
Q 22.796875 -1.421875 15.734375 5.859375 
Q 8.6875 13.140625 8.6875 27.390625 
z
" id="DejaVuSans-85"/>
      <path d="M 54.890625 33.015625 
L 54.890625 0 
L 45.90625 0 
L 45.90625 32.71875 
Q 45.90625 40.484375 42.875 44.328125 
Q 39.84375 48.1875 33.796875 48.1875 
Q 26.515625 48.1875 22.3125 43.546875 
Q 18.109375 38.921875 18.109375 30.90625 
L 18.109375 0 
L 9.078125 0 
L 9.078125 54.6875 
L 18.109375 54.6875 
L 18.109375 46.1875 
Q 21.34375 51.125 25.703125 53.5625 
Q 30.078125 56 35.796875 56 
Q 45.21875 56 50.046875 50.171875 
Q 54.890625 44.34375 54.890625 33.015625 
z
" id="DejaVuSans-110"/>
      <path d="M 34.28125 27.484375 
Q 23.390625 27.484375 19.1875 25 
Q 14.984375 22.515625 14.984375 16.5 
Q 14.984375 11.71875 18.140625 8.90625 
Q 21.296875 6.109375 26.703125 6.109375 
Q 34.1875 6.109375 38.703125 11.40625 
Q 43.21875 16.703125 43.21875 25.484375 
L 43.21875 27.484375 
z
M 52.203125 31.203125 
L 52.203125 0 
L 43.21875 0 
L 43.21875 8.296875 
Q 40.140625 3.328125 35.546875 0.953125 
Q 30.953125 -1.421875 24.3125 -1.421875 
Q 15.921875 -1.421875 10.953125 3.296875 
Q 6 8.015625 6 15.921875 
Q 6 25.140625 12.171875 29.828125 
Q 18.359375 34.515625 30.609375 34.515625 
L 43.21875 34.515625 
L 43.21875 35.40625 
Q 43.21875 41.609375 39.140625 45 
Q 35.0625 48.390625 27.6875 48.390625 
Q 23 48.390625 18.546875 47.265625 
Q 14.109375 46.140625 10.015625 43.890625 
L 10.015625 52.203125 
Q 14.9375 54.109375 19.578125 55.046875 
Q 24.21875 56 28.609375 56 
Q 40.484375 56 46.34375 49.84375 
Q 52.203125 43.703125 52.203125 31.203125 
z
" id="DejaVuSans-97"/>
      <path d="M 52 44.1875 
Q 55.375 50.25 60.0625 53.125 
Q 64.75 56 71.09375 56 
Q 79.640625 56 84.28125 50.015625 
Q 88.921875 44.046875 88.921875 33.015625 
L 88.921875 0 
L 79.890625 0 
L 79.890625 32.71875 
Q 79.890625 40.578125 77.09375 44.375 
Q 74.3125 48.1875 68.609375 48.1875 
Q 61.625 48.1875 57.5625 43.546875 
Q 53.515625 38.921875 53.515625 30.90625 
L 53.515625 0 
L 44.484375 0 
L 44.484375 32.71875 
Q 44.484375 40.625 41.703125 44.40625 
Q 38.921875 48.1875 33.109375 48.1875 
Q 26.21875 48.1875 22.15625 43.53125 
Q 18.109375 38.875 18.109375 30.90625 
L 18.109375 0 
L 9.078125 0 
L 9.078125 54.6875 
L 18.109375 54.6875 
L 18.109375 46.1875 
Q 21.1875 51.21875 25.484375 53.609375 
Q 29.78125 56 35.6875 56 
Q 41.65625 56 45.828125 52.96875 
Q 50 49.953125 52 44.1875 
z
" id="DejaVuSans-109"/>
      <path d="M 56.203125 29.59375 
L 56.203125 25.203125 
L 14.890625 25.203125 
Q 15.484375 15.921875 20.484375 11.0625 
Q 25.484375 6.203125 34.421875 6.203125 
Q 39.59375 6.203125 44.453125 7.46875 
Q 49.3125 8.734375 54.109375 11.28125 
L 54.109375 2.78125 
Q 49.265625 0.734375 44.1875 -0.34375 
Q 39.109375 -1.421875 33.890625 -1.421875 
Q 20.796875 -1.421875 13.15625 6.1875 
Q 5.515625 13.8125 5.515625 26.8125 
Q 5.515625 40.234375 12.765625 48.109375 
Q 20.015625 56 32.328125 56 
Q 43.359375 56 49.78125 48.890625 
Q 56.203125 41.796875 56.203125 29.59375 
z
M 47.21875 32.234375 
Q 47.125 39.59375 43.09375 43.984375 
Q 39.0625 48.390625 32.421875 48.390625 
Q 24.90625 48.390625 20.390625 44.140625 
Q 15.875 39.890625 15.1875 32.171875 
z
" id="DejaVuSans-101"/>
      <path d="M 45.40625 46.390625 
L 45.40625 75.984375 
L 54.390625 75.984375 
L 54.390625 0 
L 45.40625 0 
L 45.40625 8.203125 
Q 42.578125 3.328125 38.25 0.953125 
Q 33.9375 -1.421875 27.875 -1.421875 
Q 17.96875 -1.421875 11.734375 6.484375 
Q 5.515625 14.40625 5.515625 27.296875 
Q 5.515625 40.1875 11.734375 48.09375 
Q 17.96875 56 27.875 56 
Q 33.9375 56 38.25 53.625 
Q 42.578125 51.265625 45.40625 46.390625 
z
M 14.796875 27.296875 
Q 14.796875 17.390625 18.875 11.75 
Q 22.953125 6.109375 30.078125 6.109375 
Q 37.203125 6.109375 41.296875 11.75 
Q 45.40625 17.390625 45.40625 27.296875 
Q 45.40625 37.203125 41.296875 42.84375 
Q 37.203125 48.484375 30.078125 48.484375 
Q 22.953125 48.484375 18.875 42.84375 
Q 14.796875 37.203125 14.796875 27.296875 
z
" id="DejaVuSans-100"/>
      <path d="M 11.71875 12.40625 
L 22.015625 12.40625 
L 22.015625 0 
L 11.71875 0 
z
M 11.71875 51.703125 
L 22.015625 51.703125 
L 22.015625 39.3125 
L 11.71875 39.3125 
z
" id="DejaVuSans-58"/>
      <path id="DejaVuSans-32"/>
     </defs>
     <g transform="translate(217 120.278437)scale(0.1 -0.1)">
      <use xlink:href="#DejaVuSans-85"/>
      <use x="73.193359" xlink:href="#DejaVuSans-110"/>
      <use x="136.572266" xlink:href="#DejaVuSans-110"/>
      <use x="199.951172" xlink:href="#DejaVuSans-97"/>
      <use x="261.230469" xlink:href="#DejaVuSans-109"/>
      <use x="358.642578" xlink:href="#DejaVuSans-101"/>
      <use x="420.166016" xlink:href="#DejaVuSans-100"/>
      <use x="483.642578" xlink:href="#DejaVuSans-58"/>
      <use x="517.333984" xlink:href="#DejaVuSans-32"/>
      <use x="549.121094" xlink:href="#DejaVuSans-48"/>
     </g>
    </g>
    <g id="line2d_17">
     <path d="M 189 131.456563 
L 209 131.456563 
" style="fill:none;stroke:#ff7f0e;stroke-linecap:square;stroke-width:1.5;"/>
    </g>
    <g id="line2d_18"/>
    <g id="text_13">
     <!-- pf_close -->
     <defs>
      <path d="M 18.109375 8.203125 
L 18.109375 -20.796875 
L 9.078125 -20.796875 
L 9.078125 54.6875 
L 18.109375 54.6875 
L 18.109375 46.390625 
Q 20.953125 51.265625 25.265625 53.625 
Q 29.59375 56 35.59375 56 
Q 45.5625 56 51.78125 48.09375 
Q 58.015625 40.1875 58.015625 27.296875 
Q 58.015625 14.40625 51.78125 6.484375 
Q 45.5625 -1.421875 35.59375 -1.421875 
Q 29.59375 -1.421875 25.265625 0.953125 
Q 20.953125 3.328125 18.109375 8.203125 
z
M 48.6875 27.296875 
Q 48.6875 37.203125 44.609375 42.84375 
Q 40.53125 48.484375 33.40625 48.484375 
Q 26.265625 48.484375 22.1875 42.84375 
Q 18.109375 37.203125 18.109375 27.296875 
Q 18.109375 17.390625 22.1875 11.75 
Q 26.265625 6.109375 33.40625 6.109375 
Q 40.53125 6.109375 44.609375 11.75 
Q 48.6875 17.390625 48.6875 27.296875 
z
" id="DejaVuSans-112"/>
      <path d="M 37.109375 75.984375 
L 37.109375 68.5 
L 28.515625 68.5 
Q 23.6875 68.5 21.796875 66.546875 
Q 19.921875 64.59375 19.921875 59.515625 
L 19.921875 54.6875 
L 34.71875 54.6875 
L 34.71875 47.703125 
L 19.921875 47.703125 
L 19.921875 0 
L 10.890625 0 
L 10.890625 47.703125 
L 2.296875 47.703125 
L 2.296875 54.6875 
L 10.890625 54.6875 
L 10.890625 58.5 
Q 10.890625 67.625 15.140625 71.796875 
Q 19.390625 75.984375 28.609375 75.984375 
z
" id="DejaVuSans-102"/>
      <path d="M 50.984375 -16.609375 
L 50.984375 -23.578125 
L -0.984375 -23.578125 
L -0.984375 -16.609375 
z
" id="DejaVuSans-95"/>
      <path d="M 48.78125 52.59375 
L 48.78125 44.1875 
Q 44.96875 46.296875 41.140625 47.34375 
Q 37.3125 48.390625 33.40625 48.390625 
Q 24.65625 48.390625 19.8125 42.84375 
Q 14.984375 37.3125 14.984375 27.296875 
Q 14.984375 17.28125 19.8125 11.734375 
Q 24.65625 6.203125 33.40625 6.203125 
Q 37.3125 6.203125 41.140625 7.25 
Q 44.96875 8.296875 48.78125 10.40625 
L 48.78125 2.09375 
Q 45.015625 0.34375 40.984375 -0.53125 
Q 36.96875 -1.421875 32.421875 -1.421875 
Q 20.0625 -1.421875 12.78125 6.34375 
Q 5.515625 14.109375 5.515625 27.296875 
Q 5.515625 40.671875 12.859375 48.328125 
Q 20.21875 56 33.015625 56 
Q 37.15625 56 41.109375 55.140625 
Q 45.0625 54.296875 48.78125 52.59375 
z
" id="DejaVuSans-99"/>
      <path d="M 9.421875 75.984375 
L 18.40625 75.984375 
L 18.40625 0 
L 9.421875 0 
z
" id="DejaVuSans-108"/>
      <path d="M 30.609375 48.390625 
Q 23.390625 48.390625 19.1875 42.75 
Q 14.984375 37.109375 14.984375 27.296875 
Q 14.984375 17.484375 19.15625 11.84375 
Q 23.34375 6.203125 30.609375 6.203125 
Q 37.796875 6.203125 41.984375 11.859375 
Q 46.1875 17.53125 46.1875 27.296875 
Q 46.1875 37.015625 41.984375 42.703125 
Q 37.796875 48.390625 30.609375 48.390625 
z
M 30.609375 56 
Q 42.328125 56 49.015625 48.375 
Q 55.71875 40.765625 55.71875 27.296875 
Q 55.71875 13.875 49.015625 6.21875 
Q 42.328125 -1.421875 30.609375 -1.421875 
Q 18.84375 -1.421875 12.171875 6.21875 
Q 5.515625 13.875 5.515625 27.296875 
Q 5.515625 40.765625 12.171875 48.375 
Q 18.84375 56 30.609375 56 
z
" id="DejaVuSans-111"/>
      <path d="M 44.28125 53.078125 
L 44.28125 44.578125 
Q 40.484375 46.53125 36.375 47.5 
Q 32.28125 48.484375 27.875 48.484375 
Q 21.1875 48.484375 17.84375 46.4375 
Q 14.5 44.390625 14.5 40.28125 
Q 14.5 37.15625 16.890625 35.375 
Q 19.28125 33.59375 26.515625 31.984375 
L 29.59375 31.296875 
Q 39.15625 29.25 43.1875 25.515625 
Q 47.21875 21.78125 47.21875 15.09375 
Q 47.21875 7.46875 41.1875 3.015625 
Q 35.15625 -1.421875 24.609375 -1.421875 
Q 20.21875 -1.421875 15.453125 -0.5625 
Q 10.6875 0.296875 5.421875 2 
L 5.421875 11.28125 
Q 10.40625 8.6875 15.234375 7.390625 
Q 20.0625 6.109375 24.8125 6.109375 
Q 31.15625 6.109375 34.5625 8.28125 
Q 37.984375 10.453125 37.984375 14.40625 
Q 37.984375 18.0625 35.515625 20.015625 
Q 33.0625 21.96875 24.703125 23.78125 
L 21.578125 24.515625 
Q 13.234375 26.265625 9.515625 29.90625 
Q 5.8125 33.546875 5.8125 39.890625 
Q 5.8125 47.609375 11.28125 51.796875 
Q 16.75 56 26.8125 56 
Q 31.78125 56 36.171875 55.265625 
Q 40.578125 54.546875 44.28125 53.078125 
z
" id="DejaVuSans-115"/>
     </defs>
     <g transform="translate(217 134.956563)scale(0.1 -0.1)">
      <use xlink:href="#DejaVuSans-112"/>
      <use x="63.476562" xlink:href="#DejaVuSans-102"/>
      <use x="98.681641" xlink:href="#DejaVuSans-95"/>
      <use x="148.681641" xlink:href="#DejaVuSans-99"/>
      <use x="203.662109" xlink:href="#DejaVuSans-108"/>
      <use x="231.445312" xlink:href="#DejaVuSans-111"/>
      <use x="292.626953" xlink:href="#DejaVuSans-115"/>
      <use x="344.726562" xlink:href="#DejaVuSans-101"/>
     </g>
    </g>
    <g id="line2d_19">
     <path d="M 189 146.412812 
L 209 146.412812 
" style="fill:none;stroke:#2ca02c;stroke-linecap:square;stroke-width:1.5;"/>
    </g>
    <g id="line2d_20"/>
    <g id="text_14">
     <!-- gd_close -->
     <defs>
      <path d="M 45.40625 27.984375 
Q 45.40625 37.75 41.375 43.109375 
Q 37.359375 48.484375 30.078125 48.484375 
Q 22.859375 48.484375 18.828125 43.109375 
Q 14.796875 37.75 14.796875 27.984375 
Q 14.796875 18.265625 18.828125 12.890625 
Q 22.859375 7.515625 30.078125 7.515625 
Q 37.359375 7.515625 41.375 12.890625 
Q 45.40625 18.265625 45.40625 27.984375 
z
M 54.390625 6.78125 
Q 54.390625 -7.171875 48.1875 -13.984375 
Q 42 -20.796875 29.203125 -20.796875 
Q 24.46875 -20.796875 20.265625 -20.09375 
Q 16.0625 -19.390625 12.109375 -17.921875 
L 12.109375 -9.1875 
Q 16.0625 -11.328125 19.921875 -12.34375 
Q 23.78125 -13.375 27.78125 -13.375 
Q 36.625 -13.375 41.015625 -8.765625 
Q 45.40625 -4.15625 45.40625 5.171875 
L 45.40625 9.625 
Q 42.625 4.78125 38.28125 2.390625 
Q 33.9375 0 27.875 0 
Q 17.828125 0 11.671875 7.65625 
Q 5.515625 15.328125 5.515625 27.984375 
Q 5.515625 40.671875 11.671875 48.328125 
Q 17.828125 56 27.875 56 
Q 33.9375 56 38.28125 53.609375 
Q 42.625 51.21875 45.40625 46.390625 
L 45.40625 54.6875 
L 54.390625 54.6875 
z
" id="DejaVuSans-103"/>
     </defs>
     <g transform="translate(217 149.912812)scale(0.1 -0.1)">
      <use xlink:href="#DejaVuSans-103"/>
      <use x="63.476562" xlink:href="#DejaVuSans-100"/>
      <use x="126.953125" xlink:href="#DejaVuSans-95"/>
      <use x="176.953125" xlink:href="#DejaVuSans-99"/>
      <use x="231.933594" xlink:href="#DejaVuSans-108"/>
      <use x="259.716797" xlink:href="#DejaVuSans-111"/>
      <use x="320.898438" xlink:href="#DejaVuSans-115"/>
      <use x="372.998047" xlink:href="#DejaVuSans-101"/>
     </g>
    </g>
   </g>
  </g>
 </g>
 <defs>
  <clipPath id="pf2c5402fdd">
   <rect height="665.28" width="1116" x="180" y="103.68"/>
  </clipPath>
 </defs>
</svg>
