<?xml version="1.0" encoding="utf-8" standalone="no"?>
<!DOCTYPE svg PUBLIC "-//W3C//DTD SVG 1.1//EN"
  "http://www.w3.org/Graphics/SVG/1.1/DTD/svg11.dtd">
<!-- Created with matplotlib (https://matplotlib.org/) -->
<svg height="864pt" version="1.1" viewBox="0 0 1440 864" width="1440pt" xmlns="http://www.w3.org/2000/svg" xmlns:xlink="http://www.w3.org/1999/xlink">
 <defs>
  <style type="text/css">
*{stroke-linecap:butt;stroke-linejoin:round;}
  </style>
 </defs>
 <g id="figure_1">
  <g id="patch_1">
   <path d="M 0 864 
L 1440 864 
L 1440 0 
L 0 0 
z
" style="fill:#ffffff;"/>
  </g>
  <g id="axes_1">
   <g id="patch_2">
    <path d="M 180 768.96 
L 1296 768.96 
L 1296 103.68 
L 180 103.68 
z
" style="fill:#ffffff;"/>
   </g>
   <g id="matplotlib.axis_1">
    <g id="xtick_1">
     <g id="line2d_1">
      <defs>
       <path d="M 0 0 
L 0 3.5 
" id="mf747fb549e" style="stroke:#000000;stroke-width:0.8;"/>
      </defs>
      <g>
       <use style="stroke:#000000;stroke-width:0.8;" x="180" xlink:href="#mf747fb549e" y="768.96"/>
      </g>
     </g>
     <g id="text_1">
      <!-- 0 -->
      <defs>
       <path d="M 31.78125 66.40625 
Q 24.171875 66.40625 20.328125 58.90625 
Q 16.5 51.421875 16.5 36.375 
Q 16.5 21.390625 20.328125 13.890625 
Q 24.171875 6.390625 31.78125 6.390625 
Q 39.453125 6.390625 43.28125 13.890625 
Q 47.125 21.390625 47.125 36.375 
Q 47.125 51.421875 43.28125 58.90625 
Q 39.453125 66.40625 31.78125 66.40625 
z
M 31.78125 74.21875 
Q 44.046875 74.21875 50.515625 64.515625 
Q 56.984375 54.828125 56.984375 36.375 
Q 56.984375 17.96875 50.515625 8.265625 
Q 44.046875 -1.421875 31.78125 -1.421875 
Q 19.53125 -1.421875 13.0625 8.265625 
Q 6.59375 17.96875 6.59375 36.375 
Q 6.59375 54.828125 13.0625 64.515625 
Q 19.53125 74.21875 31.78125 74.21875 
z
" id="DejaVuSans-48"/>
      </defs>
      <g transform="translate(176.81875 783.558437)scale(0.1 -0.1)">
       <use xlink:href="#DejaVuSans-48"/>
      </g>
     </g>
    </g>
    <g id="xtick_2">
     <g id="line2d_2">
      <g>
       <use style="stroke:#000000;stroke-width:0.8;" x="409.62963" xlink:href="#mf747fb549e" y="768.96"/>
      </g>
     </g>
     <g id="text_2">
      <!-- 50 -->
      <defs>
       <path d="M 10.796875 72.90625 
L 49.515625 72.90625 
L 49.515625 64.59375 
L 19.828125 64.59375 
L 19.828125 46.734375 
Q 21.96875 47.46875 24.109375 47.828125 
Q 26.265625 48.1875 28.421875 48.1875 
Q 40.625 48.1875 47.75 41.5 
Q 54.890625 34.8125 54.890625 23.390625 
Q 54.890625 11.625 47.5625 5.09375 
Q 40.234375 -1.421875 26.90625 -1.421875 
Q 22.3125 -1.421875 17.546875 -0.640625 
Q 12.796875 0.140625 7.71875 1.703125 
L 7.71875 11.625 
Q 12.109375 9.234375 16.796875 8.0625 
Q 21.484375 6.890625 26.703125 6.890625 
Q 35.15625 6.890625 40.078125 11.328125 
Q 45.015625 15.765625 45.015625 23.390625 
Q 45.015625 31 40.078125 35.4375 
Q 35.15625 39.890625 26.703125 39.890625 
Q 22.75 39.890625 18.8125 39.015625 
Q 14.890625 38.140625 10.796875 36.28125 
z
" id="DejaVuSans-53"/>
      </defs>
      <g transform="translate(403.26713 783.558437)scale(0.1 -0.1)">
       <use xlink:href="#DejaVuSans-53"/>
       <use x="63.623047" xlink:href="#DejaVuSans-48"/>
      </g>
     </g>
    </g>
    <g id="xtick_3">
     <g id="line2d_3">
      <g>
       <use style="stroke:#000000;stroke-width:0.8;" x="639.259259" xlink:href="#mf747fb549e" y="768.96"/>
      </g>
     </g>
     <g id="text_3">
      <!-- 100 -->
      <defs>
       <path d="M 12.40625 8.296875 
L 28.515625 8.296875 
L 28.515625 63.921875 
L 10.984375 60.40625 
L 10.984375 69.390625 
L 28.421875 72.90625 
L 38.28125 72.90625 
L 38.28125 8.296875 
L 54.390625 8.296875 
L 54.390625 0 
L 12.40625 0 
z
" id="DejaVuSans-49"/>
      </defs>
      <g transform="translate(629.715509 783.558437)scale(0.1 -0.1)">
       <use xlink:href="#DejaVuSans-49"/>
       <use x="63.623047" xlink:href="#DejaVuSans-48"/>
       <use x="127.246094" xlink:href="#DejaVuSans-48"/>
      </g>
     </g>
    </g>
    <g id="xtick_4">
     <g id="line2d_4">
      <g>
       <use style="stroke:#000000;stroke-width:0.8;" x="868.888889" xlink:href="#mf747fb549e" y="768.96"/>
      </g>
     </g>
     <g id="text_4">
      <!-- 150 -->
      <g transform="translate(859.345139 783.558437)scale(0.1 -0.1)">
       <use xlink:href="#DejaVuSans-49"/>
       <use x="63.623047" xlink:href="#DejaVuSans-53"/>
       <use x="127.246094" xlink:href="#DejaVuSans-48"/>
      </g>
     </g>
    </g>
    <g id="xtick_5">
     <g id="line2d_5">
      <g>
       <use style="stroke:#000000;stroke-width:0.8;" x="1098.518519" xlink:href="#mf747fb549e" y="768.96"/>
      </g>
     </g>
     <g id="text_5">
      <!-- 200 -->
      <defs>
       <path d="M 19.1875 8.296875 
L 53.609375 8.296875 
L 53.609375 0 
L 7.328125 0 
L 7.328125 8.296875 
Q 12.9375 14.109375 22.625 23.890625 
Q 32.328125 33.6875 34.8125 36.53125 
Q 39.546875 41.84375 41.421875 45.53125 
Q 43.3125 49.21875 43.3125 52.78125 
Q 43.3125 58.59375 39.234375 62.25 
Q 35.15625 65.921875 28.609375 65.921875 
Q 23.96875 65.921875 18.8125 64.3125 
Q 13.671875 62.703125 7.8125 59.421875 
L 7.8125 69.390625 
Q 13.765625 71.78125 18.9375 73 
Q 24.125 74.21875 28.421875 74.21875 
Q 39.75 74.21875 46.484375 68.546875 
Q 53.21875 62.890625 53.21875 53.421875 
Q 53.21875 48.921875 51.53125 44.890625 
Q 49.859375 40.875 45.40625 35.40625 
Q 44.1875 33.984375 37.640625 27.21875 
Q 31.109375 20.453125 19.1875 8.296875 
z
" id="DejaVuSans-50"/>
      </defs>
      <g transform="translate(1088.974769 783.558437)scale(0.1 -0.1)">
       <use xlink:href="#DejaVuSans-50"/>
       <use x="63.623047" xlink:href="#DejaVuSans-48"/>
       <use x="127.246094" xlink:href="#DejaVuSans-48"/>
      </g>
     </g>
    </g>
   </g>
   <g id="matplotlib.axis_2">
    <g id="ytick_1">
     <g id="line2d_6">
      <defs>
       <path d="M 0 0 
L -3.5 0 
" id="m7312f8b3da" style="stroke:#000000;stroke-width:0.8;"/>
      </defs>
      <g>
       <use style="stroke:#000000;stroke-width:0.8;" x="180" xlink:href="#m7312f8b3da" y="705.256937"/>
      </g>
     </g>
     <g id="text_6">
      <!-- 85 -->
      <defs>
       <path d="M 31.78125 34.625 
Q 24.75 34.625 20.71875 30.859375 
Q 16.703125 27.09375 16.703125 20.515625 
Q 16.703125 13.921875 20.71875 10.15625 
Q 24.75 6.390625 31.78125 6.390625 
Q 38.8125 6.390625 42.859375 10.171875 
Q 46.921875 13.96875 46.921875 20.515625 
Q 46.921875 27.09375 42.890625 30.859375 
Q 38.875 34.625 31.78125 34.625 
z
M 21.921875 38.8125 
Q 15.578125 40.375 12.03125 44.71875 
Q 8.5 49.078125 8.5 55.328125 
Q 8.5 64.0625 14.71875 69.140625 
Q 20.953125 74.21875 31.78125 74.21875 
Q 42.671875 74.21875 48.875 69.140625 
Q 55.078125 64.0625 55.078125 55.328125 
Q 55.078125 49.078125 51.53125 44.71875 
Q 48 40.375 41.703125 38.8125 
Q 48.828125 37.15625 52.796875 32.3125 
Q 56.78125 27.484375 56.78125 20.515625 
Q 56.78125 9.90625 50.3125 4.234375 
Q 43.84375 -1.421875 31.78125 -1.421875 
Q 19.734375 -1.421875 13.25 4.234375 
Q 6.78125 9.90625 6.78125 20.515625 
Q 6.78125 27.484375 10.78125 32.3125 
Q 14.796875 37.15625 21.921875 38.8125 
z
M 18.3125 54.390625 
Q 18.3125 48.734375 21.84375 45.5625 
Q 25.390625 42.390625 31.78125 42.390625 
Q 38.140625 42.390625 41.71875 45.5625 
Q 45.3125 48.734375 45.3125 54.390625 
Q 45.3125 60.0625 41.71875 63.234375 
Q 38.140625 66.40625 31.78125 66.40625 
Q 25.390625 66.40625 21.84375 63.234375 
Q 18.3125 60.0625 18.3125 54.390625 
z
" id="DejaVuSans-56"/>
      </defs>
      <g transform="translate(160.275 709.056155)scale(0.1 -0.1)">
       <use xlink:href="#DejaVuSans-56"/>
       <use x="63.623047" xlink:href="#DejaVuSans-53"/>
      </g>
     </g>
    </g>
    <g id="ytick_2">
     <g id="line2d_7">
      <g>
       <use style="stroke:#000000;stroke-width:0.8;" x="180" xlink:href="#m7312f8b3da" y="599.556149"/>
      </g>
     </g>
     <g id="text_7">
      <!-- 90 -->
      <defs>
       <path d="M 10.984375 1.515625 
L 10.984375 10.5 
Q 14.703125 8.734375 18.5 7.8125 
Q 22.3125 6.890625 25.984375 6.890625 
Q 35.75 6.890625 40.890625 13.453125 
Q 46.046875 20.015625 46.78125 33.40625 
Q 43.953125 29.203125 39.59375 26.953125 
Q 35.25 24.703125 29.984375 24.703125 
Q 19.046875 24.703125 12.671875 31.3125 
Q 6.296875 37.9375 6.296875 49.421875 
Q 6.296875 60.640625 12.9375 67.421875 
Q 19.578125 74.21875 30.609375 74.21875 
Q 43.265625 74.21875 49.921875 64.515625 
Q 56.59375 54.828125 56.59375 36.375 
Q 56.59375 19.140625 48.40625 8.859375 
Q 40.234375 -1.421875 26.421875 -1.421875 
Q 22.703125 -1.421875 18.890625 -0.6875 
Q 15.09375 0.046875 10.984375 1.515625 
z
M 30.609375 32.421875 
Q 37.25 32.421875 41.125 36.953125 
Q 45.015625 41.5 45.015625 49.421875 
Q 45.015625 57.28125 41.125 61.84375 
Q 37.25 66.40625 30.609375 66.40625 
Q 23.96875 66.40625 20.09375 61.84375 
Q 16.21875 57.28125 16.21875 49.421875 
Q 16.21875 41.5 20.09375 36.953125 
Q 23.96875 32.421875 30.609375 32.421875 
z
" id="DejaVuSans-57"/>
      </defs>
      <g transform="translate(160.275 603.355368)scale(0.1 -0.1)">
       <use xlink:href="#DejaVuSans-57"/>
       <use x="63.623047" xlink:href="#DejaVuSans-48"/>
      </g>
     </g>
    </g>
    <g id="ytick_3">
     <g id="line2d_8">
      <g>
       <use style="stroke:#000000;stroke-width:0.8;" x="180" xlink:href="#m7312f8b3da" y="493.855362"/>
      </g>
     </g>
     <g id="text_8">
      <!-- 95 -->
      <g transform="translate(160.275 497.65458)scale(0.1 -0.1)">
       <use xlink:href="#DejaVuSans-57"/>
       <use x="63.623047" xlink:href="#DejaVuSans-53"/>
      </g>
     </g>
    </g>
    <g id="ytick_4">
     <g id="line2d_9">
      <g>
       <use style="stroke:#000000;stroke-width:0.8;" x="180" xlink:href="#m7312f8b3da" y="388.154574"/>
      </g>
     </g>
     <g id="text_9">
      <!-- 100 -->
      <g transform="translate(153.9125 391.953793)scale(0.1 -0.1)">
       <use xlink:href="#DejaVuSans-49"/>
       <use x="63.623047" xlink:href="#DejaVuSans-48"/>
       <use x="127.246094" xlink:href="#DejaVuSans-48"/>
      </g>
     </g>
    </g>
    <g id="ytick_5">
     <g id="line2d_10">
      <g>
       <use style="stroke:#000000;stroke-width:0.8;" x="180" xlink:href="#m7312f8b3da" y="282.453786"/>
      </g>
     </g>
     <g id="text_10">
      <!-- 105 -->
      <g transform="translate(153.9125 286.253005)scale(0.1 -0.1)">
       <use xlink:href="#DejaVuSans-49"/>
       <use x="63.623047" xlink:href="#DejaVuSans-48"/>
       <use x="127.246094" xlink:href="#DejaVuSans-53"/>
      </g>
     </g>
    </g>
    <g id="ytick_6">
     <g id="line2d_11">
      <g>
       <use style="stroke:#000000;stroke-width:0.8;" x="180" xlink:href="#m7312f8b3da" y="176.752999"/>
      </g>
     </g>
     <g id="text_11">
      <!-- 110 -->
      <g transform="translate(153.9125 180.552218)scale(0.1 -0.1)">
       <use xlink:href="#DejaVuSans-49"/>
       <use x="63.623047" xlink:href="#DejaVuSans-49"/>
       <use x="127.246094" xlink:href="#DejaVuSans-48"/>
      </g>
     </g>
    </g>
   </g>
   <g id="line2d_12">
    <path clip-path="url(#pd2f680927d)" d="M 180 388.154574 
L 184.592593 368.810639 
L 189.185185 352.230123 
L 193.777778 422.697315 
L 198.37037 425.460734 
L 202.962963 476.583991 
L 207.555556 429.605863 
L 212.148148 436.514411 
L 216.740741 374.337478 
L 221.333333 414.407057 
L 225.925926 401.97167 
L 230.518519 392.299703 
L 235.111111 453.094927 
L 239.703704 533.234086 
L 244.296296 480.72912 
L 248.888889 479.34741 
L 253.481481 523.562119 
L 258.074074 520.7987 
L 262.666667 533.234086 
L 267.259259 494.546216 
L 271.851852 542.906054 
L 276.444444 511.126732 
L 281.037037 529.088957 
L 285.62963 447.568089 
L 290.222222 319.069092 
L 294.814815 310.778834 
L 377.481481 310.778834 
L 382.074074 486.255958 
L 386.666667 500.073055 
L 391.259259 480.72912 
L 395.851852 360.520381 
L 400.444444 400.589961 
L 405.037037 384.009445 
L 409.62963 357.756962 
L 414.222222 346.703285 
L 418.814815 349.466704 
L 423.407407 397.826541 
L 428 395.063122 
L 432.592593 429.605863 
L 437.185185 429.605863 
L 441.777778 379.864316 
L 446.37037 372.955768 
L 450.962963 342.558156 
L 455.555556 343.939865 
L 460.148148 368.810639 
L 464.740741 400.589961 
L 469.333333 411.643638 
L 473.925926 403.35338 
L 478.518519 408.880219 
L 483.111111 395.063122 
L 487.703704 388.154574 
L 492.296296 377.100897 
L 496.888889 386.772864 
L 501.481481 375.719187 
L 506.074074 368.810639 
L 510.666667 350.848414 
L 515.259259 335.649608 
L 519.851852 378.482606 
L 524.444444 374.337478 
L 529.037037 381.246026 
L 533.62963 375.719187 
L 538.222222 384.009445 
L 542.814815 350.848414 
L 547.407407 354.993543 
L 552 357.756962 
L 556.592593 396.444832 
L 561.185185 422.697315 
L 565.777778 426.842444 
L 570.37037 429.605863 
L 574.962963 435.132702 
L 579.555556 454.476637 
L 584.148148 448.949798 
L 588.740741 453.094927 
L 593.333333 417.170476 
L 597.925926 442.04125 
L 607.111111 417.170476 
L 611.703704 417.170476 
L 616.296296 403.35338 
L 620.888889 400.589961 
L 625.481481 395.063122 
L 630.074074 370.192349 
L 634.666667 330.122769 
L 639.259259 330.122769 
L 643.851852 361.902091 
L 648.444444 363.2838 
L 653.037037 361.902091 
L 657.62963 361.902091 
L 662.222222 366.04722 
L 666.814815 390.917993 
L 671.407407 389.536284 
L 676 395.063122 
L 680.592593 388.154574 
L 685.185185 392.299703 
L 689.777778 382.627735 
L 694.37037 390.917993 
L 698.962963 377.100897 
L 703.555556 386.772864 
L 708.148148 446.186379 
L 712.740741 442.04125 
L 717.333333 446.186379 
L 721.925926 417.170476 
L 726.518519 407.498509 
L 731.111111 360.520381 
L 735.703704 359.138672 
L 744.888889 397.826541 
L 749.481481 407.498509 
L 754.074074 424.079025 
L 758.666667 426.842444 
L 763.259259 397.826541 
L 767.851852 378.482606 
L 772.444444 389.536284 
L 777.037037 388.154574 
L 781.62963 381.246026 
L 786.222222 385.391155 
L 790.814815 382.627735 
L 795.407407 372.955768 
L 800 399.208251 
L 804.592593 390.917993 
L 809.185185 384.009445 
L 813.777778 367.428929 
L 818.37037 392.299703 
L 822.962963 389.536284 
L 827.555556 377.100897 
L 832.148148 382.627735 
L 841.333333 404.73509 
L 845.925926 385.391155 
L 850.518519 384.009445 
L 859.703704 372.955768 
L 864.296296 339.794737 
L 868.888889 301.106867 
L 873.481481 223.731127 
L 878.074074 255.510448 
L 882.666667 263.800706 
L 887.259259 290.053189 
L 891.851852 292.816609 
L 905.62963 296.961738 
L 910.222222 303.870286 
L 919.407407 303.870286 
L 924 280.381222 
L 928.592593 270.709254 
L 933.185185 278.999512 
L 937.777778 270.709254 
L 942.37037 269.327545 
L 946.962963 278.999512 
L 951.555556 270.709254 
L 956.148148 254.128739 
L 960.740741 259.655577 
L 965.333333 280.381222 
L 969.925926 273.472674 
L 974.518519 280.381222 
L 979.111111 272.090964 
L 983.703704 272.090964 
L 988.296296 273.472674 
L 992.888889 263.800706 
L 997.481481 270.709254 
L 1011.259259 270.709254 
L 1015.851852 267.945835 
L 1020.444444 269.327545 
L 1025.037037 261.037287 
L 1029.62963 258.273868 
L 1034.222222 266.564126 
L 1038.814815 276.236093 
L 1043.407407 272.090964 
L 1048 298.343447 
L 1052.592593 288.67148 
L 1057.185185 298.343447 
L 1061.777778 295.580028 
L 1066.37037 295.580028 
L 1070.962963 272.090964 
L 1075.555556 277.617803 
L 1080.148148 291.434899 
L 1084.740741 309.397124 
L 1089.333333 295.580028 
L 1093.925926 298.343447 
L 1098.518519 294.198318 
L 1103.111111 308.015415 
L 1107.703704 287.28977 
L 1112.296296 280.381222 
L 1116.888889 277.617803 
L 1121.481481 272.090964 
L 1126.074074 273.472674 
L 1130.666667 258.273868 
L 1135.259259 255.510448 
L 1139.851852 254.128739 
L 1144.444444 255.510448 
L 1149.037037 254.128739 
L 1158.222222 254.128739 
L 1167.407407 243.075062 
L 1172 208.532321 
L 1176.592593 214.059159 
L 1181.185185 187.806676 
L 1185.777778 171.22616 
L 1190.37037 164.317612 
L 1194.962963 178.134709 
L 1199.555556 179.516418 
L 1204.148148 186.424966 
L 1208.740741 158.790774 
L 1213.333333 169.844451 
L 1217.925926 190.570095 
L 1222.518519 180.898128 
L 1227.111111 153.263935 
L 1231.703704 133.92 
L 1236.296296 176.752999 
L 1240.888889 175.371289 
L 1245.481481 240.311642 
L 1250.074074 245.838481 
L 1254.666667 265.182416 
L 1259.259259 296.961738 
L 1263.851852 291.434899 
L 1268.444444 309.397124 
L 1273.037037 309.397124 
L 1277.62963 301.106867 
L 1282.222222 316.305673 
L 1286.814815 323.214221 
L 1291.407407 325.97764 
L 1296 306.633705 
L 1296 306.633705 
" style="fill:none;stroke:#1f77b4;stroke-linecap:square;stroke-width:1.5;"/>
   </g>
   <g id="line2d_13">
    <path clip-path="url(#pd2f680927d)" d="M 180 388.154574 
L 184.592593 377.531379 
L 189.185185 350.973392 
L 193.777778 441.270548 
L 198.37037 404.089366 
L 202.962963 489.074924 
L 207.555556 478.451729 
L 212.148148 505.009716 
L 216.740741 505.009716 
L 221.333333 574.060482 
L 225.925926 589.995274 
L 230.518519 552.814092 
L 235.111111 579.372079 
L 239.703704 584.683676 
L 244.296296 568.748884 
L 248.888889 568.748884 
L 253.481481 669.669234 
L 258.074074 664.357637 
L 262.666667 701.538818 
L 267.259259 643.111247 
L 271.851852 690.915624 
L 276.444444 674.980832 
L 281.037037 685.604026 
L 285.62963 669.669234 
L 290.222222 680.292429 
L 294.814815 701.538818 
L 299.407407 653.734442 
L 308.592593 643.111247 
L 313.185185 653.734442 
L 317.777778 616.553261 
L 322.37037 648.422845 
L 326.962963 648.422845 
L 331.555556 738.72 
L 336.148148 717.473611 
L 340.740741 728.096805 
L 345.333333 717.473611 
L 349.925926 674.980832 
L 354.518519 653.734442 
L 359.111111 558.12569 
L 363.703704 574.060482 
L 368.296296 563.437287 
L 372.888889 558.12569 
L 377.481481 605.930066 
L 382.074074 584.683676 
L 391.259259 584.683676 
L 395.851852 547.502495 
L 400.444444 552.814092 
L 405.037037 552.814092 
L 414.222222 542.190898 
L 418.814815 552.814092 
L 423.407407 584.683676 
L 428 574.060482 
L 432.592593 584.683676 
L 437.185185 589.995274 
L 441.777778 547.502495 
L 446.37037 547.502495 
L 450.962963 531.567703 
L 455.555556 526.256105 
L 460.148148 536.8793 
L 464.740741 558.12569 
L 469.333333 563.437287 
L 473.925926 547.502495 
L 478.518519 552.814092 
L 483.111111 531.567703 
L 487.703704 526.256105 
L 492.296296 531.567703 
L 496.888889 558.12569 
L 501.481481 563.437287 
L 506.074074 579.372079 
L 510.666667 589.995274 
L 515.259259 589.995274 
L 519.851852 600.618469 
L 529.037037 600.618469 
L 533.62963 584.683676 
L 538.222222 600.618469 
L 542.814815 579.372079 
L 547.407407 584.683676 
L 552 579.372079 
L 556.592593 611.241663 
L 561.185185 648.422845 
L 565.777778 653.734442 
L 570.37037 643.111247 
L 574.962963 653.734442 
L 579.555556 659.04604 
L 584.148148 653.734442 
L 588.740741 669.669234 
L 593.333333 669.669234 
L 597.925926 674.980832 
L 602.518519 664.357637 
L 607.111111 659.04604 
L 611.703704 664.357637 
L 616.296296 653.734442 
L 625.481481 653.734442 
L 630.074074 627.176455 
L 634.666667 568.748884 
L 639.259259 574.060482 
L 643.851852 584.683676 
L 648.444444 563.437287 
L 653.037037 574.060482 
L 662.222222 574.060482 
L 666.814815 611.241663 
L 671.407407 600.618469 
L 676 595.306871 
L 680.592593 611.241663 
L 685.185185 605.930066 
L 689.777778 616.553261 
L 694.37037 605.930066 
L 698.962963 589.995274 
L 703.555556 589.995274 
L 708.148148 605.930066 
L 712.740741 579.372079 
L 717.333333 568.748884 
L 721.925926 552.814092 
L 726.518519 542.190898 
L 731.111111 515.632911 
L 735.703704 510.321313 
L 740.296296 520.944508 
L 744.888889 515.632911 
L 749.481481 499.698119 
L 754.074074 510.321313 
L 758.666667 499.698119 
L 763.259259 467.828534 
L 767.851852 446.582145 
L 772.444444 446.582145 
L 777.037037 409.400963 
L 781.62963 382.842977 
L 786.222222 409.400963 
L 795.407407 420.024158 
L 800 409.400963 
L 804.592593 377.531379 
L 809.185185 356.28499 
L 813.777778 377.531379 
L 818.37037 409.400963 
L 827.555556 388.154574 
L 836.740741 409.400963 
L 841.333333 409.400963 
L 845.925926 398.777769 
L 850.518519 398.777769 
L 855.111111 388.154574 
L 859.703704 382.842977 
L 864.296296 361.596587 
L 873.481481 202.248666 
L 882.666667 287.234224 
L 887.259259 292.545821 
L 891.851852 287.234224 
L 896.444444 297.857419 
L 901.037037 303.169016 
L 905.62963 303.169016 
L 914.814815 335.0386 
L 919.407407 366.908185 
L 924 356.28499 
L 928.592593 350.973392 
L 942.37037 350.973392 
L 946.962963 366.908185 
L 951.555556 366.908185 
L 956.148148 372.219782 
L 960.740741 393.466171 
L 965.333333 441.270548 
L 969.925926 430.647353 
L 974.518519 462.516937 
L 979.111111 435.95895 
L 983.703704 441.270548 
L 997.481481 425.335756 
L 1002.074074 462.516937 
L 1006.666667 435.95895 
L 1011.259259 451.893742 
L 1015.851852 430.647353 
L 1020.444444 425.335756 
L 1025.037037 409.400963 
L 1029.62963 420.024158 
L 1034.222222 435.95895 
L 1038.814815 430.647353 
L 1043.407407 435.95895 
L 1048 451.893742 
L 1052.592593 430.647353 
L 1057.185185 420.024158 
L 1061.777778 420.024158 
L 1066.37037 409.400963 
L 1070.962963 377.531379 
L 1075.555556 382.842977 
L 1080.148148 409.400963 
L 1084.740741 420.024158 
L 1089.333333 409.400963 
L 1093.925926 414.712561 
L 1098.518519 382.842977 
L 1103.111111 409.400963 
L 1107.703704 398.777769 
L 1112.296296 393.466171 
L 1116.888889 382.842977 
L 1121.481481 377.531379 
L 1126.074074 388.154574 
L 1130.666667 366.908185 
L 1135.259259 361.596587 
L 1139.851852 350.973392 
L 1149.037037 372.219782 
L 1153.62963 372.219782 
L 1158.222222 388.154574 
L 1162.814815 361.596587 
L 1167.407407 324.415406 
L 1172 292.545821 
L 1176.592593 276.611029 
L 1181.185185 234.11825 
L 1190.37037 223.495056 
L 1194.962963 260.676237 
L 1199.555556 250.053042 
L 1213.333333 297.857419 
L 1217.925926 303.169016 
L 1222.518519 287.234224 
L 1227.111111 207.560264 
L 1231.703704 212.871861 
L 1236.296296 239.429848 
L 1240.888889 228.806653 
L 1245.481481 324.415406 
L 1250.074074 340.350198 
L 1254.666667 345.661795 
L 1259.259259 366.908185 
L 1263.851852 350.973392 
L 1268.444444 366.908185 
L 1273.037037 372.219782 
L 1277.62963 366.908185 
L 1282.222222 377.531379 
L 1286.814815 377.531379 
L 1291.407407 372.219782 
L 1296 361.596587 
L 1296 361.596587 
" style="fill:none;stroke:#ff7f0e;stroke-linecap:square;stroke-width:1.5;"/>
   </g>
   <g id="patch_3">
    <path d="M 180 768.96 
L 180 103.68 
" style="fill:none;stroke:#000000;stroke-linecap:square;stroke-linejoin:miter;stroke-width:0.8;"/>
   </g>
   <g id="patch_4">
    <path d="M 1296 768.96 
L 1296 103.68 
" style="fill:none;stroke:#000000;stroke-linecap:square;stroke-linejoin:miter;stroke-width:0.8;"/>
   </g>
   <g id="patch_5">
    <path d="M 180 768.96 
L 1296 768.96 
" style="fill:none;stroke:#000000;stroke-linecap:square;stroke-linejoin:miter;stroke-width:0.8;"/>
   </g>
   <g id="patch_6">
    <path d="M 180 103.68 
L 1296 103.68 
" style="fill:none;stroke:#000000;stroke-linecap:square;stroke-linejoin:miter;stroke-width:0.8;"/>
   </g>
  </g>
 </g>
 <defs>
  <clipPath id="pd2f680927d">
   <rect height="665.28" width="1116" x="180" y="103.68"/>
  </clipPath>
 </defs>
</svg>
