<?xml version="1.0" encoding="utf-8" standalone="no"?>
<!DOCTYPE svg PUBLIC "-//W3C//DTD SVG 1.1//EN"
  "http://www.w3.org/Graphics/SVG/1.1/DTD/svg11.dtd">
<!-- Created with matplotlib (https://matplotlib.org/) -->
<svg height="864pt" version="1.1" viewBox="0 0 1440 864" width="1440pt" xmlns="http://www.w3.org/2000/svg" xmlns:xlink="http://www.w3.org/1999/xlink">
 <defs>
  <style type="text/css">
*{stroke-linecap:butt;stroke-linejoin:round;}
  </style>
 </defs>
 <g id="figure_1">
  <g id="patch_1">
   <path d="M 0 864 
L 1440 864 
L 1440 0 
L 0 0 
z
" style="fill:#ffffff;"/>
  </g>
  <g id="axes_1">
   <g id="patch_2">
    <path d="M 180 768.96 
L 1296 768.96 
L 1296 103.68 
L 180 103.68 
z
" style="fill:#ffffff;"/>
   </g>
   <g id="matplotlib.axis_1">
    <g id="xtick_1">
     <g id="line2d_1">
      <defs>
       <path d="M 0 0 
L 0 3.5 
" id="m60a04e7548" style="stroke:#000000;stroke-width:0.8;"/>
      </defs>
      <g>
       <use style="stroke:#000000;stroke-width:0.8;" x="180" xlink:href="#m60a04e7548" y="768.96"/>
      </g>
     </g>
     <g id="text_1">
      <!-- 0 -->
      <defs>
       <path d="M 31.78125 66.40625 
Q 24.171875 66.40625 20.328125 58.90625 
Q 16.5 51.421875 16.5 36.375 
Q 16.5 21.390625 20.328125 13.890625 
Q 24.171875 6.390625 31.78125 6.390625 
Q 39.453125 6.390625 43.28125 13.890625 
Q 47.125 21.390625 47.125 36.375 
Q 47.125 51.421875 43.28125 58.90625 
Q 39.453125 66.40625 31.78125 66.40625 
z
M 31.78125 74.21875 
Q 44.046875 74.21875 50.515625 64.515625 
Q 56.984375 54.828125 56.984375 36.375 
Q 56.984375 17.96875 50.515625 8.265625 
Q 44.046875 -1.421875 31.78125 -1.421875 
Q 19.53125 -1.421875 13.0625 8.265625 
Q 6.59375 17.96875 6.59375 36.375 
Q 6.59375 54.828125 13.0625 64.515625 
Q 19.53125 74.21875 31.78125 74.21875 
z
" id="DejaVuSans-48"/>
      </defs>
      <g transform="translate(176.81875 783.558437)scale(0.1 -0.1)">
       <use xlink:href="#DejaVuSans-48"/>
      </g>
     </g>
    </g>
    <g id="xtick_2">
     <g id="line2d_2">
      <g>
       <use style="stroke:#000000;stroke-width:0.8;" x="409.393628" xlink:href="#m60a04e7548" y="768.96"/>
      </g>
     </g>
     <g id="text_2">
      <!-- 200 -->
      <defs>
       <path d="M 19.1875 8.296875 
L 53.609375 8.296875 
L 53.609375 0 
L 7.328125 0 
L 7.328125 8.296875 
Q 12.9375 14.109375 22.625 23.890625 
Q 32.328125 33.6875 34.8125 36.53125 
Q 39.546875 41.84375 41.421875 45.53125 
Q 43.3125 49.21875 43.3125 52.78125 
Q 43.3125 58.59375 39.234375 62.25 
Q 35.15625 65.921875 28.609375 65.921875 
Q 23.96875 65.921875 18.8125 64.3125 
Q 13.671875 62.703125 7.8125 59.421875 
L 7.8125 69.390625 
Q 13.765625 71.78125 18.9375 73 
Q 24.125 74.21875 28.421875 74.21875 
Q 39.75 74.21875 46.484375 68.546875 
Q 53.21875 62.890625 53.21875 53.421875 
Q 53.21875 48.921875 51.53125 44.890625 
Q 49.859375 40.875 45.40625 35.40625 
Q 44.1875 33.984375 37.640625 27.21875 
Q 31.109375 20.453125 19.1875 8.296875 
z
" id="DejaVuSans-50"/>
      </defs>
      <g transform="translate(399.849878 783.558437)scale(0.1 -0.1)">
       <use xlink:href="#DejaVuSans-50"/>
       <use x="63.623047" xlink:href="#DejaVuSans-48"/>
       <use x="127.246094" xlink:href="#DejaVuSans-48"/>
      </g>
     </g>
    </g>
    <g id="xtick_3">
     <g id="line2d_3">
      <g>
       <use style="stroke:#000000;stroke-width:0.8;" x="638.787256" xlink:href="#m60a04e7548" y="768.96"/>
      </g>
     </g>
     <g id="text_3">
      <!-- 400 -->
      <defs>
       <path d="M 37.796875 64.3125 
L 12.890625 25.390625 
L 37.796875 25.390625 
z
M 35.203125 72.90625 
L 47.609375 72.90625 
L 47.609375 25.390625 
L 58.015625 25.390625 
L 58.015625 17.1875 
L 47.609375 17.1875 
L 47.609375 0 
L 37.796875 0 
L 37.796875 17.1875 
L 4.890625 17.1875 
L 4.890625 26.703125 
z
" id="DejaVuSans-52"/>
      </defs>
      <g transform="translate(629.243506 783.558437)scale(0.1 -0.1)">
       <use xlink:href="#DejaVuSans-52"/>
       <use x="63.623047" xlink:href="#DejaVuSans-48"/>
       <use x="127.246094" xlink:href="#DejaVuSans-48"/>
      </g>
     </g>
    </g>
    <g id="xtick_4">
     <g id="line2d_4">
      <g>
       <use style="stroke:#000000;stroke-width:0.8;" x="868.180884" xlink:href="#m60a04e7548" y="768.96"/>
      </g>
     </g>
     <g id="text_4">
      <!-- 600 -->
      <defs>
       <path d="M 33.015625 40.375 
Q 26.375 40.375 22.484375 35.828125 
Q 18.609375 31.296875 18.609375 23.390625 
Q 18.609375 15.53125 22.484375 10.953125 
Q 26.375 6.390625 33.015625 6.390625 
Q 39.65625 6.390625 43.53125 10.953125 
Q 47.40625 15.53125 47.40625 23.390625 
Q 47.40625 31.296875 43.53125 35.828125 
Q 39.65625 40.375 33.015625 40.375 
z
M 52.59375 71.296875 
L 52.59375 62.3125 
Q 48.875 64.0625 45.09375 64.984375 
Q 41.3125 65.921875 37.59375 65.921875 
Q 27.828125 65.921875 22.671875 59.328125 
Q 17.53125 52.734375 16.796875 39.40625 
Q 19.671875 43.65625 24.015625 45.921875 
Q 28.375 48.1875 33.59375 48.1875 
Q 44.578125 48.1875 50.953125 41.515625 
Q 57.328125 34.859375 57.328125 23.390625 
Q 57.328125 12.15625 50.6875 5.359375 
Q 44.046875 -1.421875 33.015625 -1.421875 
Q 20.359375 -1.421875 13.671875 8.265625 
Q 6.984375 17.96875 6.984375 36.375 
Q 6.984375 53.65625 15.1875 63.9375 
Q 23.390625 74.21875 37.203125 74.21875 
Q 40.921875 74.21875 44.703125 73.484375 
Q 48.484375 72.75 52.59375 71.296875 
z
" id="DejaVuSans-54"/>
      </defs>
      <g transform="translate(858.637134 783.558437)scale(0.1 -0.1)">
       <use xlink:href="#DejaVuSans-54"/>
       <use x="63.623047" xlink:href="#DejaVuSans-48"/>
       <use x="127.246094" xlink:href="#DejaVuSans-48"/>
      </g>
     </g>
    </g>
    <g id="xtick_5">
     <g id="line2d_5">
      <g>
       <use style="stroke:#000000;stroke-width:0.8;" x="1097.574512" xlink:href="#m60a04e7548" y="768.96"/>
      </g>
     </g>
     <g id="text_5">
      <!-- 800 -->
      <defs>
       <path d="M 31.78125 34.625 
Q 24.75 34.625 20.71875 30.859375 
Q 16.703125 27.09375 16.703125 20.515625 
Q 16.703125 13.921875 20.71875 10.15625 
Q 24.75 6.390625 31.78125 6.390625 
Q 38.8125 6.390625 42.859375 10.171875 
Q 46.921875 13.96875 46.921875 20.515625 
Q 46.921875 27.09375 42.890625 30.859375 
Q 38.875 34.625 31.78125 34.625 
z
M 21.921875 38.8125 
Q 15.578125 40.375 12.03125 44.71875 
Q 8.5 49.078125 8.5 55.328125 
Q 8.5 64.0625 14.71875 69.140625 
Q 20.953125 74.21875 31.78125 74.21875 
Q 42.671875 74.21875 48.875 69.140625 
Q 55.078125 64.0625 55.078125 55.328125 
Q 55.078125 49.078125 51.53125 44.71875 
Q 48 40.375 41.703125 38.8125 
Q 48.828125 37.15625 52.796875 32.3125 
Q 56.78125 27.484375 56.78125 20.515625 
Q 56.78125 9.90625 50.3125 4.234375 
Q 43.84375 -1.421875 31.78125 -1.421875 
Q 19.734375 -1.421875 13.25 4.234375 
Q 6.78125 9.90625 6.78125 20.515625 
Q 6.78125 27.484375 10.78125 32.3125 
Q 14.796875 37.15625 21.921875 38.8125 
z
M 18.3125 54.390625 
Q 18.3125 48.734375 21.84375 45.5625 
Q 25.390625 42.390625 31.78125 42.390625 
Q 38.140625 42.390625 41.71875 45.5625 
Q 45.3125 48.734375 45.3125 54.390625 
Q 45.3125 60.0625 41.71875 63.234375 
Q 38.140625 66.40625 31.78125 66.40625 
Q 25.390625 66.40625 21.84375 63.234375 
Q 18.3125 60.0625 18.3125 54.390625 
z
" id="DejaVuSans-56"/>
      </defs>
      <g transform="translate(1088.030762 783.558437)scale(0.1 -0.1)">
       <use xlink:href="#DejaVuSans-56"/>
       <use x="63.623047" xlink:href="#DejaVuSans-48"/>
       <use x="127.246094" xlink:href="#DejaVuSans-48"/>
      </g>
     </g>
    </g>
   </g>
   <g id="matplotlib.axis_2">
    <g id="ytick_1">
     <g id="line2d_6">
      <defs>
       <path d="M 0 0 
L -3.5 0 
" id="m72fdc232fc" style="stroke:#000000;stroke-width:0.8;"/>
      </defs>
      <g>
       <use style="stroke:#000000;stroke-width:0.8;" x="180" xlink:href="#m72fdc232fc" y="715.078813"/>
      </g>
     </g>
     <g id="text_6">
      <!-- 80 -->
      <g transform="translate(160.275 718.878032)scale(0.1 -0.1)">
       <use xlink:href="#DejaVuSans-56"/>
       <use x="63.623047" xlink:href="#DejaVuSans-48"/>
      </g>
     </g>
    </g>
    <g id="ytick_2">
     <g id="line2d_7">
      <g>
       <use style="stroke:#000000;stroke-width:0.8;" x="180" xlink:href="#m72fdc232fc" y="604.317216"/>
      </g>
     </g>
     <g id="text_7">
      <!-- 90 -->
      <defs>
       <path d="M 10.984375 1.515625 
L 10.984375 10.5 
Q 14.703125 8.734375 18.5 7.8125 
Q 22.3125 6.890625 25.984375 6.890625 
Q 35.75 6.890625 40.890625 13.453125 
Q 46.046875 20.015625 46.78125 33.40625 
Q 43.953125 29.203125 39.59375 26.953125 
Q 35.25 24.703125 29.984375 24.703125 
Q 19.046875 24.703125 12.671875 31.3125 
Q 6.296875 37.9375 6.296875 49.421875 
Q 6.296875 60.640625 12.9375 67.421875 
Q 19.578125 74.21875 30.609375 74.21875 
Q 43.265625 74.21875 49.921875 64.515625 
Q 56.59375 54.828125 56.59375 36.375 
Q 56.59375 19.140625 48.40625 8.859375 
Q 40.234375 -1.421875 26.421875 -1.421875 
Q 22.703125 -1.421875 18.890625 -0.6875 
Q 15.09375 0.046875 10.984375 1.515625 
z
M 30.609375 32.421875 
Q 37.25 32.421875 41.125 36.953125 
Q 45.015625 41.5 45.015625 49.421875 
Q 45.015625 57.28125 41.125 61.84375 
Q 37.25 66.40625 30.609375 66.40625 
Q 23.96875 66.40625 20.09375 61.84375 
Q 16.21875 57.28125 16.21875 49.421875 
Q 16.21875 41.5 20.09375 36.953125 
Q 23.96875 32.421875 30.609375 32.421875 
z
" id="DejaVuSans-57"/>
      </defs>
      <g transform="translate(160.275 608.116435)scale(0.1 -0.1)">
       <use xlink:href="#DejaVuSans-57"/>
       <use x="63.623047" xlink:href="#DejaVuSans-48"/>
      </g>
     </g>
    </g>
    <g id="ytick_3">
     <g id="line2d_8">
      <g>
       <use style="stroke:#000000;stroke-width:0.8;" x="180" xlink:href="#m72fdc232fc" y="493.555619"/>
      </g>
     </g>
     <g id="text_8">
      <!-- 100 -->
      <defs>
       <path d="M 12.40625 8.296875 
L 28.515625 8.296875 
L 28.515625 63.921875 
L 10.984375 60.40625 
L 10.984375 69.390625 
L 28.421875 72.90625 
L 38.28125 72.90625 
L 38.28125 8.296875 
L 54.390625 8.296875 
L 54.390625 0 
L 12.40625 0 
z
" id="DejaVuSans-49"/>
      </defs>
      <g transform="translate(153.9125 497.354838)scale(0.1 -0.1)">
       <use xlink:href="#DejaVuSans-49"/>
       <use x="63.623047" xlink:href="#DejaVuSans-48"/>
       <use x="127.246094" xlink:href="#DejaVuSans-48"/>
      </g>
     </g>
    </g>
    <g id="ytick_4">
     <g id="line2d_9">
      <g>
       <use style="stroke:#000000;stroke-width:0.8;" x="180" xlink:href="#m72fdc232fc" y="382.794023"/>
      </g>
     </g>
     <g id="text_9">
      <!-- 110 -->
      <g transform="translate(153.9125 386.593241)scale(0.1 -0.1)">
       <use xlink:href="#DejaVuSans-49"/>
       <use x="63.623047" xlink:href="#DejaVuSans-49"/>
       <use x="127.246094" xlink:href="#DejaVuSans-48"/>
      </g>
     </g>
    </g>
    <g id="ytick_5">
     <g id="line2d_10">
      <g>
       <use style="stroke:#000000;stroke-width:0.8;" x="180" xlink:href="#m72fdc232fc" y="272.032426"/>
      </g>
     </g>
     <g id="text_10">
      <!-- 120 -->
      <g transform="translate(153.9125 275.831645)scale(0.1 -0.1)">
       <use xlink:href="#DejaVuSans-49"/>
       <use x="63.623047" xlink:href="#DejaVuSans-50"/>
       <use x="127.246094" xlink:href="#DejaVuSans-48"/>
      </g>
     </g>
    </g>
    <g id="ytick_6">
     <g id="line2d_11">
      <g>
       <use style="stroke:#000000;stroke-width:0.8;" x="180" xlink:href="#m72fdc232fc" y="161.270829"/>
      </g>
     </g>
     <g id="text_11">
      <!-- 130 -->
      <defs>
       <path d="M 40.578125 39.3125 
Q 47.65625 37.796875 51.625 33 
Q 55.609375 28.21875 55.609375 21.1875 
Q 55.609375 10.40625 48.1875 4.484375 
Q 40.765625 -1.421875 27.09375 -1.421875 
Q 22.515625 -1.421875 17.65625 -0.515625 
Q 12.796875 0.390625 7.625 2.203125 
L 7.625 11.71875 
Q 11.71875 9.328125 16.59375 8.109375 
Q 21.484375 6.890625 26.8125 6.890625 
Q 36.078125 6.890625 40.9375 10.546875 
Q 45.796875 14.203125 45.796875 21.1875 
Q 45.796875 27.640625 41.28125 31.265625 
Q 36.765625 34.90625 28.71875 34.90625 
L 20.21875 34.90625 
L 20.21875 43.015625 
L 29.109375 43.015625 
Q 36.375 43.015625 40.234375 45.921875 
Q 44.09375 48.828125 44.09375 54.296875 
Q 44.09375 59.90625 40.109375 62.90625 
Q 36.140625 65.921875 28.71875 65.921875 
Q 24.65625 65.921875 20.015625 65.03125 
Q 15.375 64.15625 9.8125 62.3125 
L 9.8125 71.09375 
Q 15.4375 72.65625 20.34375 73.4375 
Q 25.25 74.21875 29.59375 74.21875 
Q 40.828125 74.21875 47.359375 69.109375 
Q 53.90625 64.015625 53.90625 55.328125 
Q 53.90625 49.265625 50.4375 45.09375 
Q 46.96875 40.921875 40.578125 39.3125 
z
" id="DejaVuSans-51"/>
      </defs>
      <g transform="translate(153.9125 165.070048)scale(0.1 -0.1)">
       <use xlink:href="#DejaVuSans-49"/>
       <use x="63.623047" xlink:href="#DejaVuSans-51"/>
       <use x="127.246094" xlink:href="#DejaVuSans-48"/>
      </g>
     </g>
    </g>
   </g>
   <g id="line2d_12">
    <path clip-path="url(#p46b9c6acc6)" d="M 180 493.555619 
L 181.146968 479.156329 
L 182.293936 470.40382 
L 183.440904 507.296118 
L 184.587873 508.519587 
L 185.734841 536.000585 
L 186.881809 510.966525 
L 188.028777 514.731046 
L 189.175745 481.603268 
L 190.322713 502.872807 
L 192.61665 491.014568 
L 193.763618 523.483555 
L 194.910586 565.363843 
L 196.057554 537.882845 
L 197.204522 537.224054 
L 198.35149 560.375854 
L 199.498458 559.152385 
L 200.645427 565.363843 
L 201.792395 545.317773 
L 202.939363 570.351832 
L 204.086331 554.070282 
L 205.233299 563.481583 
L 206.380267 520.377826 
L 207.527235 452.898801 
L 208.674203 448.569602 
L 209.821172 540.988574 
L 210.96814 547.858824 
L 212.115108 537.882845 
L 213.262076 474.733018 
L 214.409044 495.343766 
L 215.556012 486.68537 
L 216.70298 472.850758 
L 217.849949 467.298091 
L 218.996917 468.52156 
L 220.143885 494.120297 
L 221.290853 492.896828 
L 222.437821 510.966525 
L 223.584789 510.966525 
L 224.731757 484.80311 
L 225.878726 481.03859 
L 227.025694 465.415831 
L 228.172662 465.980509 
L 229.31963 479.156329 
L 230.466598 496.002558 
L 231.613566 501.649338 
L 232.760534 497.226027 
L 233.907503 500.425869 
L 235.054471 492.896828 
L 236.201439 489.132308 
L 237.348407 483.485528 
L 238.495375 488.473517 
L 239.642343 482.92085 
L 240.789311 479.156329 
L 241.93628 469.180351 
L 243.083248 461.65131 
L 244.230216 484.144319 
L 245.377184 481.603268 
L 246.524152 485.367788 
L 247.67112 482.92085 
L 248.818088 487.250048 
L 249.965057 469.180351 
L 251.112025 471.627289 
L 252.258993 472.850758 
L 253.405961 493.555619 
L 254.552929 507.296118 
L 256.846865 510.966525 
L 257.993834 513.507577 
L 259.140802 524.142346 
L 260.28777 521.036617 
L 261.434738 523.483555 
L 262.581706 504.096276 
L 263.728674 517.272097 
L 266.02261 504.755067 
L 267.169579 504.755067 
L 268.316547 497.226027 
L 269.463515 495.343766 
L 270.610483 492.896828 
L 271.757451 479.721007 
L 272.904419 458.545581 
L 274.051387 464.75704 
L 275.198356 475.391809 
L 276.345324 476.0506 
L 277.492292 475.391809 
L 278.63926 475.391809 
L 279.786228 477.274069 
L 280.933196 490.355777 
L 282.080164 489.791099 
L 283.227133 492.896828 
L 284.374101 489.132308 
L 285.521069 491.014568 
L 286.668037 486.026579 
L 287.815005 490.355777 
L 288.961973 483.485528 
L 290.108941 489.226421 
L 291.25591 520.283713 
L 292.402878 518.213227 
L 293.549846 520.283713 
L 294.696814 504.755067 
L 295.843782 499.861191 
L 296.99075 475.015357 
L 298.137718 474.356566 
L 300.431655 494.873201 
L 301.578623 499.861191 
L 302.725591 508.331361 
L 303.872559 509.743056 
L 305.019527 494.873201 
L 306.166495 484.238432 
L 307.313464 490.638116 
L 308.460432 489.885212 
L 309.6074 485.650127 
L 310.754368 488.473517 
L 311.901336 487.061822 
L 313.048304 481.415042 
L 314.195272 495.531992 
L 315.34224 491.296907 
L 316.489209 487.814726 
L 317.636177 478.591651 
L 318.783145 492.049811 
L 319.930113 490.638116 
L 321.077081 483.579641 
L 322.224049 487.061822 
L 324.517986 498.355383 
L 325.664954 488.473517 
L 326.811922 487.814726 
L 327.95889 484.238432 
L 329.105858 481.415042 
L 330.252826 464.474701 
L 331.399794 443.958065 
L 332.546763 402.924795 
L 333.693731 419.865136 
L 334.840699 424.100221 
L 335.987667 438.311285 
L 337.134635 439.72298 
L 340.57554 441.793466 
L 341.722508 445.36976 
L 342.869476 445.36976 
L 344.016444 453.087027 
L 345.163412 441.134675 
L 346.31038 435.487895 
L 347.457348 440.381771 
L 348.604317 435.487895 
L 349.751285 434.734991 
L 350.898253 440.381771 
L 352.045221 435.487895 
L 353.192189 426.923611 
L 354.339157 429.747001 
L 355.486125 441.134675 
L 356.633094 437.558381 
L 357.780062 441.134675 
L 358.92703 436.89959 
L 360.073998 436.89959 
L 361.220966 437.558381 
L 362.367934 431.9116 
L 363.514902 435.487895 
L 366.955807 435.487895 
L 368.102775 434.0762 
L 369.249743 434.734991 
L 370.396711 430.499905 
L 371.543679 429.08821 
L 372.690647 433.323296 
L 373.837616 438.970076 
L 374.984584 436.89959 
L 376.131552 450.263637 
L 377.27852 445.36976 
L 378.425488 450.263637 
L 379.572456 448.851942 
L 380.719424 448.19315 
L 381.866393 436.146686 
L 383.013361 439.72298 
L 384.160329 446.781455 
L 385.307297 456.00453 
L 386.454265 448.851942 
L 387.601233 450.263637 
L 388.748201 448.19315 
L 389.89517 455.251626 
L 391.042138 444.616856 
L 392.189106 441.134675 
L 393.336074 439.72298 
L 394.483042 436.146686 
L 395.63001 436.89959 
L 396.776978 429.08821 
L 397.923947 427.676515 
L 399.070915 426.923611 
L 400.217883 427.676515 
L 401.364851 426.923611 
L 403.658787 426.923611 
L 405.952724 421.276831 
L 407.099692 403.583586 
L 408.24666 406.406976 
L 409.393628 392.290025 
L 410.540596 383.819854 
L 411.687564 380.24356 
L 412.834532 387.302036 
L 413.981501 388.05494 
L 415.128469 391.631234 
L 416.275437 377.42017 
L 417.422405 383.06695 
L 418.569373 393.70172 
L 419.716341 388.807844 
L 420.863309 374.59678 
L 422.010277 363.96201 
L 423.157246 386.643245 
L 424.304214 385.890341 
L 425.451182 419.865136 
L 426.59815 422.688526 
L 427.745118 432.570391 
L 428.892086 449.604846 
L 430.039054 446.781455 
L 431.186023 456.00453 
L 432.332991 456.00453 
L 433.479959 451.675332 
L 434.626927 459.486711 
L 435.773895 463.063005 
L 436.920863 464.474701 
L 438.067831 454.498722 
L 439.2148 448.19315 
L 440.361768 446.028551 
L 441.508736 448.19315 
L 442.655704 456.663321 
L 443.802672 455.251626 
L 444.94964 456.00453 
L 446.096608 458.075016 
L 447.243577 460.898406 
L 448.390545 450.263637 
L 449.537513 429.747001 
L 450.684481 441.134675 
L 451.831449 435.487895 
L 454.125385 426.923611 
L 455.272354 429.08821 
L 456.419322 420.61804 
L 457.56629 420.61804 
L 458.713258 417.041745 
L 459.860226 424.853125 
L 461.007194 422.688526 
L 462.154162 422.029735 
L 463.301131 422.029735 
L 464.448099 418.453441 
L 465.595067 414.218355 
L 466.742035 409.230366 
L 467.889003 416.382954 
L 469.035971 409.98327 
L 470.182939 414.218355 
L 471.329908 424.100221 
L 472.476876 404.995281 
L 473.623844 407.15988 
L 474.770812 416.382954 
L 475.91778 420.61804 
L 477.064748 419.206345 
L 478.211716 427.676515 
L 479.358684 427.676515 
L 480.505653 429.747001 
L 481.652621 440.381771 
L 482.799589 444.616856 
L 483.946557 440.381771 
L 485.093525 438.970076 
L 486.240493 441.793466 
L 487.387461 453.839931 
L 488.53443 453.087027 
L 489.681398 445.36976 
L 490.828366 451.016541 
L 491.975334 452.428236 
L 493.122302 448.851942 
L 494.26927 455.251626 
L 495.416238 459.486711 
L 496.563207 469.368577 
L 497.710175 484.991336 
L 498.857143 477.93286 
L 501.151079 466.545187 
L 502.298047 468.709786 
L 503.445015 478.591651 
L 504.591984 482.826737 
L 505.738952 468.709786 
L 506.88592 458.075016 
L 508.032888 462.310101 
L 509.179856 462.310101 
L 510.326824 471.533176 
L 511.473792 477.179956 
L 512.620761 477.179956 
L 513.767729 487.061822 
L 514.914697 504.096276 
L 516.061665 500.519982 
L 517.208633 518.872018 
L 519.502569 546.541242 
L 520.649538 536.565263 
L 521.796506 540.141557 
L 522.943474 536.565263 
L 524.090442 536.565263 
L 525.23741 525.271702 
L 526.384378 525.271702 
L 527.531346 528.847997 
L 528.678314 534.494777 
L 529.825283 541.553252 
L 532.119219 550.023423 
L 533.266187 557.081898 
L 534.413155 567.716668 
L 535.560123 557.834802 
L 536.707091 525.271702 
L 537.85406 521.036617 
L 539.001028 521.036617 
L 540.147996 525.271702 
L 541.294964 539.388653 
L 542.441932 538.729862 
L 543.5889 537.318167 
L 544.735868 509.743056 
L 545.882837 506.919666 
L 547.029805 396.901562 
L 548.176773 405.27762 
L 549.323741 405.27762 
L 550.470709 397.842692 
L 551.617677 400.666082 
L 552.764645 404.430603 
L 553.911614 409.04214 
L 555.058582 405.27762 
L 556.20555 405.27762 
L 557.352518 396.901562 
L 558.499486 410.9244 
L 559.646454 428.617645 
L 560.793422 440.758223 
L 561.940391 448.19315 
L 563.087359 450.922428 
L 564.234327 446.31089 
L 565.381295 456.569208 
L 566.528263 451.863558 
L 567.675231 430.499905 
L 568.822199 423.911995 
L 569.969168 423.911995 
L 571.116136 418.359328 
L 572.263104 409.98327 
L 573.410072 412.80666 
L 574.55704 423.064978 
L 575.704008 431.441035 
L 576.850976 432.288052 
L 577.997945 425.794255 
L 579.144913 422.123848 
L 580.291881 427.676515 
L 581.438849 434.170313 
L 582.585817 409.04214 
L 583.732785 403.489473 
L 584.879753 365.279592 
L 586.026721 335.445769 
L 587.17369 319.634784 
L 588.320658 339.21029 
L 589.467626 326.128582 
L 590.614594 332.716492 
L 591.761562 348.527477 
L 592.90853 328.010842 
L 594.055498 342.880697 
L 595.202467 355.021275 
L 596.349435 355.021275 
L 597.496403 346.645217 
L 598.643371 356.903535 
L 599.790339 350.409737 
L 600.937307 349.468607 
L 602.084275 382.972837 
L 603.231244 402.548343 
L 604.378212 396.901562 
L 605.52518 402.548343 
L 606.672148 412.80666 
L 607.819116 409.98327 
L 610.113052 431.441035 
L 611.260021 428.617645 
L 612.406989 437.934833 
L 613.553957 434.170313 
L 614.700925 436.052573 
L 615.847893 436.052573 
L 616.994861 443.4875 
L 618.141829 430.499905 
L 619.288798 439.817093 
L 620.435766 410.9244 
L 621.582734 400.666082 
L 622.729702 394.172285 
L 623.87667 402.548343 
L 625.023638 417.418198 
L 626.170606 411.86553 
L 627.317575 410.9244 
L 628.464543 387.584375 
L 629.611511 394.172285 
L 630.758479 404.430603 
L 631.905447 387.584375 
L 633.052415 391.348895 
L 634.199383 386.737358 
L 635.346351 402.548343 
L 637.640288 406.21875 
L 638.787256 398.783822 
L 639.934224 399.724952 
L 641.081192 401.607213 
L 642.22816 402.548343 
L 643.375128 400.666082 
L 644.522097 396.054545 
L 645.669065 403.489473 
L 647.963001 405.27762 
L 649.109969 402.548343 
L 650.256937 386.737358 
L 651.403905 381.090577 
L 652.550874 384.855097 
L 653.697842 385.796227 
L 654.84481 396.054545 
L 655.991778 386.737358 
L 657.138746 391.348895 
L 658.285714 383.913967 
L 659.432682 378.3613 
L 660.579651 389.466635 
L 661.726619 405.27762 
L 662.873587 403.489473 
L 664.020555 399.724952 
L 665.167523 407.15988 
L 666.314491 404.430603 
L 667.461459 418.359328 
L 668.608428 426.735385 
L 669.755396 433.229183 
L 670.902364 434.170313 
L 672.049332 429.558775 
L 673.1963 439.817093 
L 674.343268 433.229183 
L 675.490236 429.558775 
L 676.637205 432.288052 
L 677.784173 424.853125 
L 678.931141 409.04214 
L 680.078109 427.676515 
L 681.225077 427.676515 
L 682.372045 447.25202 
L 683.519013 410.9244 
L 684.665982 404.430603 
L 685.81295 396.054545 
L 686.959918 369.044112 
L 688.106886 384.855097 
L 689.253854 382.031707 
L 690.400822 381.090577 
L 691.54779 396.054545 
L 692.694758 396.054545 
L 693.841727 398.783822 
L 694.988695 398.783822 
L 696.135663 397.842692 
L 697.282631 374.59678 
L 698.429599 394.172285 
L 699.576567 394.172285 
L 700.723535 396.901562 
L 701.870504 393.231155 
L 703.017472 413.74779 
L 704.16444 414.594807 
L 705.311408 419.300458 
L 706.458376 425.794255 
L 707.605344 423.064978 
L 708.752312 413.74779 
L 709.899281 415.535937 
L 711.046249 418.359328 
L 712.193217 425.794255 
L 713.340185 428.617645 
L 714.487153 423.911995 
L 715.634121 425.794255 
L 716.781089 433.229183 
L 717.928058 428.617645 
L 719.075026 416.477067 
L 720.221994 422.123848 
L 721.368962 422.123848 
L 722.51593 419.300458 
L 723.662898 420.241588 
L 724.809866 418.359328 
L 725.956835 388.525505 
L 727.103803 396.054545 
L 728.250771 398.783822 
L 729.397739 388.525505 
L 730.544707 399.724952 
L 731.691675 381.090577 
L 732.838643 368.102982 
L 733.985612 368.102982 
L 735.13258 411.86553 
L 736.279548 399.724952 
L 737.426516 337.328029 
L 738.573484 329.893102 
L 739.720452 352.197884 
L 740.86742 347.586347 
L 742.014388 380.149447 
L 743.161357 374.59678 
L 744.308325 362.456202 
L 745.455293 377.42017 
L 746.602261 344.762957 
L 747.749229 345.704087 
L 748.896197 348.527477 
L 751.190134 410.9244 
L 752.337102 437.934833 
L 753.48407 436.052573 
L 754.631038 440.758223 
L 755.778006 424.853125 
L 756.924974 416.477067 
L 758.071942 415.535937 
L 759.218911 419.300458 
L 760.365879 440.758223 
L 761.512847 439.817093 
L 762.659815 445.36976 
L 763.806783 444.42863 
L 764.953751 437.934833 
L 766.100719 437.934833 
L 767.247688 439.817093 
L 768.394656 438.875963 
L 769.541624 436.993703 
L 770.688592 437.934833 
L 771.83556 447.25202 
L 772.982528 447.25202 
L 774.129496 455.628078 
L 776.423433 453.745818 
L 777.570401 456.569208 
L 778.717369 460.239615 
L 779.864337 510.590073 
L 781.011305 519.907261 
L 782.158273 518.966131 
L 783.305242 523.577668 
L 784.45221 518.966131 
L 785.599178 516.142741 
L 786.746146 510.590073 
L 787.893114 524.518798 
L 790.18705 530.165579 
L 791.334018 504.943293 
L 792.480987 491.955698 
L 793.627955 504.002163 
L 794.774923 512.472334 
L 795.921891 525.459928 
L 797.068859 525.459928 
L 798.215827 508.707813 
L 799.362795 502.214016 
L 800.509764 519.907261 
L 801.656732 520.848391 
L 802.8037 504.002163 
L 803.950668 515.201611 
L 805.097636 523.577668 
L 806.244604 519.907261 
L 807.391572 573.928126 
L 808.538541 584.186444 
L 809.685509 592.562502 
L 810.832477 591.621372 
L 811.979445 581.363054 
L 813.126413 583.245314 
L 814.273381 581.363054 
L 815.420349 581.363054 
L 816.567318 576.657404 
L 817.714286 577.598534 
L 818.861254 588.797981 
L 820.008222 592.562502 
L 821.15519 585.974591 
L 822.302158 582.304184 
L 823.449126 587.856851 
L 824.596095 595.291779 
L 825.743063 596.232909 
L 826.890031 603.667836 
L 828.036999 599.056299 
L 829.183967 610.255747 
L 830.330935 628.890122 
L 831.477903 618.631804 
L 832.624872 606.491227 
L 833.77184 599.997429 
L 834.918808 608.373487 
L 836.065776 618.631804 
L 837.212744 612.043894 
L 838.359712 630.678269 
L 839.50668 630.678269 
L 840.653649 637.26618 
L 841.800617 650.253774 
L 842.947585 649.312644 
L 844.094553 641.877717 
L 845.241521 677.264207 
L 846.388489 680.087597 
L 847.535457 685.640265 
L 848.682425 692.134062 
L 849.829394 710.768437 
L 850.976362 718.297478 
L 852.12333 728.461682 
L 853.270298 716.415218 
L 854.417266 710.768437 
L 855.564234 735.990723 
L 856.711202 730.343942 
L 857.858171 734.108463 
L 859.005139 738.72 
L 860.152107 728.461682 
L 861.299075 707.09803 
L 862.446043 709.827307 
L 863.593011 727.614665 
L 864.739979 709.827307 
L 865.886948 708.03916 
L 867.033916 715.568201 
L 868.180884 712.74481 
L 869.327852 706.1569 
L 870.47482 701.45125 
L 871.621788 672.276218 
L 872.768756 663.806047 
L 873.915725 658.159267 
L 875.062693 658.159267 
L 876.209661 663.806047 
L 877.356629 660.982657 
L 878.503597 647.806836 
L 879.650565 644.042316 
L 880.797533 668.511698 
L 881.944502 679.805258 
L 883.09147 676.040738 
L 884.238438 668.511698 
L 885.385406 649.689096 
L 886.532374 655.335877 
L 887.679342 646.865706 
L 888.82631 653.453617 
L 889.973279 661.923787 
L 891.120247 654.394747 
L 892.267215 669.452828 
L 893.414183 654.394747 
L 894.561151 661.923787 
L 895.708119 645.924576 
L 898.002055 651.571356 
L 899.149024 653.453617 
L 900.295992 631.807625 
L 901.44296 628.984235 
L 902.589928 631.807625 
L 903.736896 629.925365 
L 904.883864 644.042316 
L 906.030832 628.984235 
L 907.177801 637.454406 
L 908.324769 625.219715 
L 909.471737 648.747966 
L 910.618705 646.865706 
L 911.765673 642.160056 
L 912.912641 643.101186 
L 914.059609 658.159267 
L 915.206578 656.277007 
L 916.353546 632.748755 
L 917.500514 635.572145 
L 918.647482 645.924576 
L 919.79445 635.572145 
L 922.088386 639.336666 
L 923.235355 613.926154 
L 924.382323 627.101975 
L 925.529291 621.455195 
L 926.676259 614.867284 
L 927.823227 601.691463 
L 928.970195 644.983446 
L 930.117163 645.924576 
L 931.264132 644.042316 
L 932.4111 678.864128 
L 933.558068 657.218137 
L 934.705036 657.218137 
L 935.852004 655.335877 
L 936.998972 632.748755 
L 938.14594 642.160056 
L 939.292909 624.278585 
L 940.439877 601.691463 
L 941.586845 617.690674 
L 942.733813 590.397903 
L 943.880781 580.986602 
L 945.027749 573.457561 
L 946.174717 585.692252 
L 947.321686 570.634171 
L 948.468654 567.810781 
L 949.615622 576.280952 
L 950.76259 548.98818 
L 951.909558 552.7527 
L 953.056526 563.105131 
L 954.203494 575.339822 
L 955.350462 560.281741 
L 956.497431 589.456772 
L 957.644399 584.751122 
L 958.791367 582.868862 
L 959.938335 594.162423 
L 961.085303 587.574512 
L 962.232271 588.515642 
L 963.379239 577.222082 
L 964.526208 595.103553 
L 965.673176 597.926943 
L 966.820144 599.809203 
L 967.967112 612.985024 
L 969.11408 612.985024 
L 970.261048 613.926154 
L 971.408016 605.455984 
L 972.554985 600.750333 
L 973.701953 593.221293 
L 974.848921 564.046261 
L 975.995889 558.399481 
L 977.142857 565.928521 
L 978.289825 575.339822 
L 979.436793 576.280952 
L 980.583762 581.927732 
L 981.73073 592.280163 
L 982.877698 591.339033 
L 984.024666 584.751122 
L 985.171634 601.691463 
L 986.318602 586.633382 
L 987.46557 606.397114 
L 988.612539 609.220504 
L 989.759507 636.513275 
L 990.906475 653.453617 
L 992.053443 668.511698 
L 994.347379 691.098819 
L 995.494347 692.039949 
L 996.641316 678.864128 
L 997.788284 688.275429 
L 998.935252 677.922998 
L 1000.08222 663.806047 
L 1001.229188 661.923787 
L 1002.376156 663.806047 
L 1003.523124 660.982657 
L 1004.670092 663.806047 
L 1005.817061 655.335877 
L 1006.964029 654.394747 
L 1008.110997 649.689096 
L 1009.257965 647.806836 
L 1010.404933 644.042316 
L 1011.551901 619.572934 
L 1012.698869 627.101975 
L 1013.845838 636.513275 
L 1014.992806 634.631015 
L 1017.286742 612.985024 
L 1018.43371 620.514064 
L 1019.580678 605.455984 
L 1020.727646 612.985024 
L 1021.874615 591.339033 
L 1023.021583 587.574512 
L 1024.168551 594.162423 
L 1025.315519 592.280163 
L 1026.462487 579.104342 
L 1027.609455 582.868862 
L 1028.756423 597.926943 
L 1029.903392 580.986602 
L 1031.05036 584.751122 
L 1032.197328 581.927732 
L 1033.344296 585.692252 
L 1034.491264 564.987391 
L 1035.638232 479.344555 
L 1036.7852 504.755067 
L 1037.932169 487.814726 
L 1039.079137 496.284897 
L 1040.226105 469.933255 
L 1041.373073 469.933255 
L 1042.520041 473.697775 
L 1043.667009 469.933255 
L 1044.813977 483.109076 
L 1045.960946 518.872018 
L 1048.254882 524.518798 
L 1049.40185 524.518798 
L 1050.548818 522.636538 
L 1051.695786 525.459928 
L 1052.842754 510.401847 
L 1053.989723 514.166368 
L 1055.136691 514.166368 
L 1056.283659 522.636538 
L 1057.430627 529.224449 
L 1058.577595 563.105131 
L 1059.724563 557.45835 
L 1060.871531 558.399481 
L 1062.018499 563.105131 
L 1063.165468 539.576879 
L 1064.312436 524.518798 
L 1065.459404 524.518798 
L 1066.606372 518.872018 
L 1067.75334 499.108287 
L 1068.900308 498.167157 
L 1070.047276 515.107498 
L 1071.194245 520.754278 
L 1072.341213 521.695408 
L 1073.488181 519.813148 
L 1074.635149 521.695408 
L 1075.782117 476.521165 
L 1076.929085 480.285686 
L 1078.076053 480.285686 
L 1079.223022 470.874385 
L 1080.36999 499.108287 
L 1081.516958 500.049417 
L 1083.810894 515.107498 
L 1084.957862 535.812359 
L 1086.10483 520.754278 
L 1087.251799 474.638905 
L 1088.398767 490.638116 
L 1089.545735 490.638116 
L 1090.692703 517.930888 
L 1091.839671 554.63496 
L 1092.986639 535.812359 
L 1094.133607 536.753489 
L 1095.280576 546.16479 
L 1096.427544 535.812359 
L 1097.574512 537.694619 
L 1098.72148 543.3414 
L 1099.868448 533.930099 
L 1101.015416 535.812359 
L 1102.162384 550.87044 
L 1103.309353 556.51722 
L 1104.456321 555.57609 
L 1105.603289 545.22366 
L 1106.750257 538.635749 
L 1107.897225 554.63496 
L 1109.044193 555.57609 
L 1110.191161 553.69383 
L 1111.338129 539.576879 
L 1112.485098 532.988969 
L 1114.779034 521.695408 
L 1115.926002 508.519587 
L 1117.07297 526.401058 
L 1118.219938 509.460717 
L 1119.366906 500.049417 
L 1120.513875 491.579246 
L 1121.660843 493.461506 
L 1122.807811 488.755856 
L 1123.954779 483.109076 
L 1125.101747 452.992914 
L 1126.248715 463.345344 
L 1127.395683 468.992125 
L 1128.542652 503.813937 
L 1129.68962 503.813937 
L 1130.836588 505.696197 
L 1131.983556 501.931677 
L 1133.130524 499.108287 
L 1134.277492 508.519587 
L 1135.42446 513.225238 
L 1136.571429 507.578457 
L 1137.718397 512.284108 
L 1138.865365 532.047839 
L 1140.012333 531.106709 
L 1141.159301 532.988969 
L 1142.306269 528.283319 
L 1143.453237 516.989758 
L 1144.600206 518.872018 
L 1145.747174 514.166368 
L 1146.894142 520.754278 
L 1148.04111 519.813148 
L 1149.188078 511.342978 
L 1150.335046 520.754278 
L 1151.482014 519.813148 
L 1152.628983 510.401847 
L 1153.775951 483.109076 
L 1156.069887 484.991336 
L 1157.216855 484.991336 
L 1158.363823 484.050206 
L 1159.510791 504.755067 
L 1160.65776 520.754278 
L 1161.804728 543.3414 
L 1162.951696 557.45835 
L 1164.098664 559.340611 
L 1165.245632 541.459139 
L 1166.3926 531.106709 
L 1167.539568 525.459928 
L 1168.686536 534.871229 
L 1169.833505 539.576879 
L 1170.980473 538.635749 
L 1172.127441 545.22366 
L 1173.274409 530.165579 
L 1174.421377 531.106709 
L 1175.568345 527.342189 
L 1176.715313 525.459928 
L 1177.862282 510.401847 
L 1179.00925 537.694619 
L 1180.156218 537.694619 
L 1181.303186 535.812359 
L 1182.450154 544.28253 
L 1183.597122 539.576879 
L 1184.74409 533.930099 
L 1185.891059 532.988969 
L 1188.184995 507.578457 
L 1189.331963 500.990547 
L 1190.478931 495.343766 
L 1192.772867 476.521165 
L 1193.919836 471.815515 
L 1195.066804 478.403425 
L 1196.213772 489.696986 
L 1197.36074 478.403425 
L 1199.654676 476.521165 
L 1200.801644 495.343766 
L 1201.948613 495.343766 
L 1203.095581 489.696986 
L 1204.242549 474.638905 
L 1205.389517 481.226816 
L 1206.536485 486.873596 
L 1207.683453 481.226816 
L 1208.830421 472.756645 
L 1209.97739 475.580035 
L 1212.271326 383.349289 
L 1213.418294 369.232338 
L 1214.565262 370.173468 
L 1215.71223 361.703298 
L 1216.859198 398.40737 
L 1218.006166 386.17268 
L 1219.153135 384.290419 
L 1220.300103 390.87833 
L 1221.447071 369.232338 
L 1223.741007 405.936411 
L 1224.887975 399.3485 
L 1226.034943 416.288841 
L 1227.181912 423.817882 
L 1228.32888 401.23076 
L 1229.475848 402.171891 
L 1230.622816 382.408159 
L 1231.769784 385.231549 
L 1232.916752 400.28963 
L 1234.06372 418.171102 
L 1235.210689 444.522743 
L 1236.357657 449.228394 
L 1237.504625 450.169524 
L 1238.651593 458.639694 
L 1239.798561 457.698564 
L 1240.945529 449.228394 
L 1242.092497 450.169524 
L 1243.239466 468.050995 
L 1244.386434 475.580035 
L 1245.533402 472.756645 
L 1246.68037 465.227605 
L 1247.827338 466.168735 
L 1248.974306 472.756645 
L 1250.121274 475.580035 
L 1251.268243 480.285686 
L 1252.415211 484.050206 
L 1253.562179 484.991336 
L 1254.709147 495.343766 
L 1255.856115 482.167946 
L 1257.003083 479.344555 
L 1258.150051 481.226816 
L 1259.29702 484.991336 
L 1260.443988 473.697775 
L 1261.590956 481.226816 
L 1262.737924 460.521954 
L 1263.884892 459.580824 
L 1265.03186 435.111443 
L 1268.472765 432.288052 
L 1269.619733 452.992914 
L 1270.766701 445.463873 
L 1271.913669 449.228394 
L 1273.060637 444.522743 
L 1274.207605 441.699353 
L 1275.354573 439.817093 
L 1276.501542 436.993703 
L 1296 436.993703 
L 1296 436.993703 
" style="fill:none;stroke:#1f77b4;stroke-linecap:square;stroke-width:1.5;"/>
   </g>
   <g id="line2d_13">
    <path clip-path="url(#p46b9c6acc6)" d="M 180 493.555619 
L 181.146968 488.307718 
L 182.293936 474.724913 
L 183.440904 521.029928 
L 184.587873 501.890522 
L 185.734841 548.195538 
L 186.881809 542.638936 
L 188.028777 556.53044 
L 189.175745 556.53044 
L 190.322713 591.722252 
L 191.469681 600.057155 
L 192.61665 580.917748 
L 193.763618 594.500553 
L 194.910586 597.278854 
L 196.057554 589.252651 
L 197.204522 589.252651 
L 198.35149 641.114268 
L 199.498458 638.335967 
L 200.645427 657.475374 
L 201.792395 627.222764 
L 202.939363 651.918772 
L 204.086331 643.583869 
L 205.233299 649.140471 
L 206.380267 641.114268 
L 207.527235 646.36217 
L 208.674203 657.475374 
L 209.821172 632.779366 
L 212.115108 627.222764 
L 213.262076 632.779366 
L 214.409044 613.639959 
L 215.556012 632.779366 
L 216.70298 630.001065 
L 217.849949 679.084381 
L 218.996917 665.501576 
L 220.143885 673.836479 
L 221.290853 668.279877 
L 222.437821 643.583869 
L 223.584789 632.779366 
L 224.731757 583.696049 
L 225.878726 591.722252 
L 227.025694 586.47435 
L 228.172662 583.696049 
L 229.31963 608.083357 
L 230.466598 597.278854 
L 232.760534 597.278854 
L 233.907503 578.139447 
L 235.054471 580.917748 
L 236.201439 580.917748 
L 238.495375 575.361147 
L 239.642343 580.917748 
L 240.789311 597.278854 
L 241.93628 591.722252 
L 243.083248 597.278854 
L 244.230216 600.057155 
L 245.377184 578.139447 
L 246.524152 578.139447 
L 247.67112 570.113245 
L 248.818088 567.334944 
L 249.965057 572.891546 
L 251.112025 583.696049 
L 252.258993 586.47435 
L 253.405961 578.139447 
L 254.552929 580.917748 
L 255.699897 570.113245 
L 256.846865 567.334944 
L 257.993834 570.113245 
L 259.140802 583.696049 
L 260.28777 586.47435 
L 261.434738 594.500553 
L 262.581706 600.057155 
L 263.728674 600.057155 
L 264.875642 605.613757 
L 267.169579 605.613757 
L 268.316547 597.278854 
L 269.463515 605.613757 
L 270.610483 594.500553 
L 271.757451 597.278854 
L 272.904419 594.500553 
L 274.051387 610.861658 
L 275.198356 630.001065 
L 276.345324 632.779366 
L 277.492292 627.222764 
L 278.63926 632.779366 
L 279.786228 635.557666 
L 280.933196 632.779366 
L 282.080164 641.114268 
L 283.227133 641.114268 
L 284.374101 643.583869 
L 285.521069 638.335967 
L 286.668037 635.557666 
L 287.815005 638.335967 
L 288.961973 632.779366 
L 291.25591 632.779366 
L 292.402878 619.196561 
L 293.549846 589.252651 
L 294.696814 591.722252 
L 295.843782 597.278854 
L 296.99075 586.47435 
L 298.137718 591.722252 
L 300.431655 591.722252 
L 301.578623 610.861658 
L 302.725591 605.613757 
L 303.872559 602.835456 
L 305.019527 610.861658 
L 306.166495 608.083357 
L 307.313464 613.639959 
L 308.460432 608.083357 
L 309.6074 600.057155 
L 310.754368 600.057155 
L 311.901336 608.083357 
L 313.048304 594.500553 
L 314.195272 589.252651 
L 315.34224 580.917748 
L 316.489209 575.361147 
L 317.636177 561.778342 
L 318.783145 559.000041 
L 319.930113 564.556643 
L 321.077081 561.778342 
L 322.224049 553.752139 
L 323.371017 559.000041 
L 324.517986 553.752139 
L 325.664954 537.391034 
L 326.811922 525.96913 
L 327.95889 505.903623 
L 329.105858 491.394719 
L 330.252826 505.903623 
L 332.546763 511.460225 
L 333.693731 505.903623 
L 334.840699 488.616418 
L 335.987667 477.194514 
L 337.134635 488.616418 
L 338.281603 505.903623 
L 340.57554 494.17302 
L 342.869476 505.903623 
L 344.016444 505.903623 
L 345.163412 500.038322 
L 346.31038 500.038322 
L 347.457348 494.17302 
L 348.604317 491.394719 
L 349.751285 479.972815 
L 352.045221 396.932487 
L 353.192189 419.776295 
L 354.339157 439.841802 
L 355.486125 442.620102 
L 356.633094 439.841802 
L 357.780062 445.707103 
L 358.92703 448.485404 
L 360.073998 448.485404 
L 362.367934 465.77261 
L 363.514902 482.751116 
L 364.661871 477.194514 
L 365.808839 474.107513 
L 369.249743 474.107513 
L 370.396711 482.751116 
L 371.543679 482.751116 
L 372.690647 485.838117 
L 373.837616 497.260021 
L 374.984584 522.882129 
L 376.131552 517.325527 
L 377.27852 531.525732 
L 378.425488 520.103828 
L 379.572456 522.882129 
L 383.013361 514.547226 
L 384.160329 531.525732 
L 385.307297 520.103828 
L 386.454265 528.747431 
L 387.601233 517.325527 
L 388.748201 514.547226 
L 389.89517 505.903623 
L 391.042138 511.460225 
L 392.189106 520.103828 
L 393.336074 517.325527 
L 394.483042 520.103828 
L 395.63001 528.747431 
L 396.776978 517.325527 
L 397.923947 511.460225 
L 399.070915 511.460225 
L 400.217883 505.903623 
L 401.364851 488.616418 
L 402.511819 491.394719 
L 403.658787 505.903623 
L 404.805755 511.460225 
L 405.952724 505.903623 
L 407.099692 508.681924 
L 408.24666 491.394719 
L 409.393628 505.903623 
L 410.540596 500.038322 
L 411.687564 497.260021 
L 412.834532 491.394719 
L 413.981501 488.616418 
L 415.128469 494.17302 
L 416.275437 482.751116 
L 417.422405 479.972815 
L 418.569373 474.107513 
L 420.863309 485.838117 
L 422.010277 485.838117 
L 423.157246 494.17302 
L 424.304214 479.972815 
L 425.451182 459.907308 
L 426.59815 442.620102 
L 427.745118 433.9765 
L 428.892086 413.910993 
L 431.186023 408.354391 
L 432.332991 428.419898 
L 433.479959 422.554596 
L 434.626927 431.198199 
L 435.773895 437.063501 
L 436.920863 445.707103 
L 438.067831 448.485404 
L 439.2148 439.841802 
L 440.361768 399.710788 
L 441.508736 402.489089 
L 442.655704 416.997994 
L 443.802672 411.132692 
L 444.94964 459.907308 
L 446.096608 468.550911 
L 447.243577 471.329212 
L 448.390545 482.751116 
L 449.537513 474.107513 
L 450.684481 482.751116 
L 451.831449 485.838117 
L 452.978417 482.751116 
L 454.125385 488.616418 
L 455.272354 488.616418 
L 456.419322 485.838117 
L 457.56629 479.972815 
L 458.713258 468.550911 
L 459.860226 465.77261 
L 462.154162 477.194514 
L 463.301131 477.194514 
L 464.448099 479.972815 
L 465.595067 479.972815 
L 466.742035 485.838117 
L 467.889003 477.194514 
L 469.035971 462.685609 
L 470.182939 465.77261 
L 471.329908 457.129007 
L 472.476876 459.907308 
L 473.623844 454.042006 
L 474.770812 457.129007 
L 475.91778 437.063501 
L 477.064748 437.063501 
L 478.211716 431.198199 
L 479.358684 445.707103 
L 480.505653 442.620102 
L 481.652621 445.707103 
L 482.799589 439.841802 
L 483.946557 437.063501 
L 485.093525 431.198199 
L 486.240493 416.997994 
L 487.387461 419.776295 
L 489.681398 408.354391 
L 490.828366 425.641597 
L 491.975334 399.710788 
L 495.416238 399.710788 
L 496.563207 408.354391 
L 498.857143 413.910993 
L 500.004111 393.845486 
L 501.151079 399.710788 
L 502.298047 408.354391 
L 503.445015 413.910993 
L 504.591984 408.354391 
L 505.738952 411.132692 
L 506.88592 422.554596 
L 508.032888 413.910993 
L 509.179856 391.067185 
L 510.326824 388.288884 
L 511.473792 379.645282 
L 512.620761 382.423582 
L 513.767729 419.776295 
L 514.914697 419.776295 
L 516.061665 425.641597 
L 517.208633 442.620102 
L 518.355601 442.620102 
L 519.502569 439.841802 
L 520.649538 428.419898 
L 521.796506 428.419898 
L 522.943474 431.198199 
L 524.090442 428.419898 
L 525.23741 422.554596 
L 526.384378 422.554596 
L 527.531346 431.198199 
L 528.678314 433.9765 
L 529.825283 439.841802 
L 530.972251 442.620102 
L 532.119219 445.707103 
L 533.266187 451.263705 
L 534.413155 454.042006 
L 535.560123 459.907308 
L 537.85406 488.616418 
L 539.001028 491.394719 
L 540.147996 485.838117 
L 541.294964 488.616418 
L 542.441932 485.838117 
L 543.5889 488.616418 
L 544.735868 494.17302 
L 545.882837 494.17302 
L 547.029805 497.260021 
L 548.176773 491.394719 
L 549.323741 494.17302 
L 551.617677 494.17302 
L 552.764645 491.394719 
L 553.911614 485.838117 
L 555.058582 482.751116 
L 556.20555 462.685609 
L 557.352518 465.77261 
L 558.499486 471.329212 
L 560.793422 494.17302 
L 561.940391 497.260021 
L 563.087359 497.260021 
L 564.234327 479.972815 
L 565.381295 491.394719 
L 566.528263 459.907308 
L 567.675231 462.685609 
L 571.116136 445.707103 
L 572.263104 462.685609 
L 573.410072 465.77261 
L 574.55704 462.685609 
L 575.704008 462.685609 
L 576.850976 457.129007 
L 577.997945 462.685609 
L 580.291881 468.550911 
L 581.438849 474.107513 
L 582.585817 474.107513 
L 583.732785 468.550911 
L 584.879753 468.550911 
L 586.026721 465.77261 
L 587.17369 457.129007 
L 588.320658 454.042006 
L 589.467626 457.129007 
L 590.614594 448.485404 
L 591.761562 442.620102 
L 592.90853 439.841802 
L 594.055498 439.841802 
L 595.202467 442.620102 
L 596.349435 445.707103 
L 598.643371 433.9765 
L 599.790339 439.841802 
L 600.937307 436.754801 
L 602.084275 419.158895 
L 604.378212 389.832385 
L 605.52518 372.236479 
L 606.672148 328.092364 
L 607.819116 336.735967 
L 608.966084 336.735967 
L 610.113052 330.870665 
L 611.260021 348.466571 
L 612.406989 345.68827 
L 613.553957 345.68827 
L 614.700925 339.822968 
L 615.847893 354.331873 
L 616.994861 357.418874 
L 618.141829 357.418874 
L 619.288798 348.466571 
L 620.435766 336.735967 
L 621.582734 351.553572 
L 622.729702 369.149478 
L 623.87667 372.236479 
L 625.023638 372.236479 
L 626.170606 386.745384 
L 627.317575 392.610686 
L 628.464543 395.697687 
L 629.611511 404.34129 
L 630.758479 398.475988 
L 631.905447 407.428291 
L 633.052415 395.697687 
L 634.199383 395.697687 
L 635.346351 401.562989 
L 636.49332 398.475988 
L 637.640288 392.610686 
L 638.787256 404.34129 
L 639.934224 363.284176 
L 641.081192 354.331873 
L 642.22816 342.601269 
L 643.375128 357.418874 
L 644.522097 366.062477 
L 645.669065 380.880082 
L 646.816033 363.284176 
L 647.963001 357.418874 
L 650.256937 375.01478 
L 651.403905 380.880082 
L 652.550874 378.101781 
L 653.697842 375.01478 
L 654.84481 383.967083 
L 655.991778 386.745384 
L 658.285714 398.475988 
L 659.432682 395.697687 
L 660.579651 398.475988 
L 661.726619 389.832385 
L 664.020555 389.832385 
L 666.314491 401.562989 
L 667.461459 404.34129 
L 668.608428 410.206592 
L 669.755396 395.697687 
L 670.902364 395.697687 
L 672.049332 392.610686 
L 673.1963 395.697687 
L 674.343268 395.697687 
L 675.490236 386.745384 
L 676.637205 392.610686 
L 677.784173 386.745384 
L 678.931141 383.967083 
L 680.078109 392.610686 
L 681.225077 407.428291 
L 682.372045 404.34129 
L 683.519013 404.34129 
L 684.665982 407.428291 
L 685.81295 404.34129 
L 686.959918 410.206592 
L 689.253854 416.071894 
L 691.54779 416.071894 
L 692.694758 425.024197 
L 693.841727 410.206592 
L 694.988695 410.206592 
L 696.135663 419.158895 
L 697.282631 425.024197 
L 698.429599 407.428291 
L 699.576567 416.071894 
L 701.870504 421.937196 
L 703.017472 398.475988 
L 704.16444 392.610686 
L 705.311408 392.610686 
L 706.458376 357.418874 
L 707.605344 372.236479 
L 709.899281 372.236479 
L 711.046249 383.967083 
L 712.193217 386.745384 
L 713.340185 372.236479 
L 715.634121 372.236479 
L 716.781089 351.553572 
L 717.928058 363.284176 
L 719.075026 366.062477 
L 720.221994 375.01478 
L 721.368962 375.01478 
L 722.51593 389.832385 
L 723.662898 380.880082 
L 724.809866 389.832385 
L 725.956835 407.428291 
L 727.103803 410.206592 
L 728.250771 398.475988 
L 729.397739 401.562989 
L 730.544707 401.562989 
L 731.691675 407.428291 
L 732.838643 407.428291 
L 733.985612 398.475988 
L 736.279548 410.206592 
L 737.426516 410.206592 
L 739.720452 392.610686 
L 740.86742 395.697687 
L 742.014388 389.832385 
L 743.161357 386.745384 
L 744.308325 395.697687 
L 745.455293 386.745384 
L 746.602261 380.880082 
L 747.749229 378.101781 
L 748.896197 363.284176 
L 750.043165 363.284176 
L 752.337102 328.092364 
L 753.48407 295.678854 
L 754.631038 283.94825 
L 755.778006 189.794719 
L 756.924974 189.794719 
L 758.071942 195.66002 
L 759.218911 186.707718 
L 760.365879 204.612323 
L 761.512847 248.447738 
L 762.659815 228.073531 
L 763.806783 210.477625 
L 764.953751 224.98653 
L 766.100719 133.92 
L 767.247688 154.602907 
L 768.394656 204.612323 
L 769.541624 269.130645 
L 770.688592 307.409458 
L 771.83556 339.822968 
L 772.982528 330.870665 
L 774.129496 330.870665 
L 775.276465 304.322457 
L 776.423433 283.94825 
L 777.570401 286.726551 
L 778.717369 313.27476 
L 779.864337 333.957666 
L 781.011305 330.870665 
L 782.158273 345.68827 
L 783.305242 342.601269 
L 784.45221 330.870665 
L 785.599178 336.735967 
L 786.746146 333.957666 
L 787.893114 336.735967 
L 789.040082 339.822968 
L 790.18705 339.822968 
L 791.334018 351.553572 
L 792.480987 354.331873 
L 793.627955 369.149478 
L 794.774923 369.149478 
L 795.921891 366.062477 
L 798.215827 366.062477 
L 799.362795 369.149478 
L 800.509764 401.562989 
L 801.656732 407.428291 
L 802.8037 407.428291 
L 803.950668 395.697687 
L 806.244604 407.428291 
L 807.391572 416.071894 
L 808.538541 416.071894 
L 809.685509 413.293593 
L 810.832477 389.832385 
L 811.979445 378.101781 
L 813.126413 389.832385 
L 814.273381 404.34129 
L 815.420349 427.802498 
L 816.567318 433.9765 
L 817.714286 427.802498 
L 818.861254 425.024197 
L 820.008222 430.889499 
L 821.15519 430.889499 
L 822.302158 410.206592 
L 823.449126 421.937196 
L 824.596095 421.937196 
L 825.743063 413.293593 
L 826.890031 419.158895 
L 828.036999 416.071894 
L 829.183967 419.158895 
L 830.330935 416.071894 
L 831.477903 401.562989 
L 832.624872 401.562989 
L 834.918808 395.697687 
L 836.065776 389.832385 
L 837.212744 395.697687 
L 838.359712 410.206592 
L 839.50668 413.293593 
L 840.653649 401.562989 
L 841.800617 398.475988 
L 842.947585 404.34129 
L 844.094553 416.071894 
L 845.241521 419.158895 
L 846.388489 419.158895 
L 847.535457 425.024197 
L 848.682425 419.158895 
L 849.829394 439.841802 
L 850.976362 433.9765 
L 852.12333 433.9765 
L 853.270298 427.802498 
L 854.417266 430.889499 
L 855.564234 436.754801 
L 856.711202 436.754801 
L 857.858171 454.350706 
L 859.005139 457.437707 
L 860.152107 457.437707 
L 861.299075 463.303009 
L 862.446043 463.303009 
L 863.593011 457.437707 
L 864.739979 454.350706 
L 865.886948 469.168311 
L 867.033916 475.033613 
L 868.180884 477.811914 
L 869.327852 492.629519 
L 870.47482 513.312426 
L 871.621788 530.908332 
L 872.768756 536.773634 
L 873.915725 525.04303 
L 875.062693 569.187144 
L 876.209661 563.321843 
L 877.356629 563.321843 
L 878.503597 548.504238 
L 879.650565 548.504238 
L 880.797533 519.177728 
L 881.944502 525.04303 
L 883.09147 536.773634 
L 884.238438 519.177728 
L 885.385406 521.956029 
L 886.532374 539.551935 
L 888.82631 539.551935 
L 889.973279 542.638936 
L 891.120247 504.360123 
L 892.267215 486.764217 
L 893.414183 475.033613 
L 894.561151 471.946612 
L 895.708119 486.764217 
L 896.855087 480.590215 
L 898.002055 471.329212 
L 899.149024 468.242211 
L 900.295992 486.764217 
L 901.44296 511.460225 
L 902.589928 502.199222 
L 903.736896 502.199222 
L 904.883864 486.764217 
L 906.030832 499.112221 
L 907.177801 486.764217 
L 908.324769 492.938219 
L 909.471737 502.199222 
L 910.618705 505.286223 
L 911.765673 526.89523 
L 912.912641 523.808229 
L 914.059609 536.156234 
L 915.206578 520.721228 
L 916.353546 511.460225 
L 917.500514 511.460225 
L 918.647482 505.286223 
L 919.79445 480.590215 
L 920.941418 458.981208 
L 922.088386 458.981208 
L 923.235355 465.15521 
L 924.382323 468.242211 
L 925.529291 449.720205 
L 926.676259 458.981208 
L 927.823227 440.459202 
L 928.970195 458.981208 
L 930.117163 452.807206 
L 931.264132 449.720205 
L 932.4111 452.807206 
L 933.558068 458.981208 
L 934.705036 449.720205 
L 935.852004 434.2852 
L 936.998972 437.372201 
L 938.14594 437.372201 
L 939.292909 421.937196 
L 940.439877 421.937196 
L 941.586845 403.415189 
L 942.733813 387.980184 
L 943.880781 397.241187 
L 945.027749 400.328188 
L 946.174717 400.328188 
L 947.321686 394.154186 
L 948.468654 425.024197 
L 949.615622 434.2852 
L 950.76259 415.763194 
L 951.909558 455.894207 
L 953.056526 428.111198 
L 955.350462 428.111198 
L 956.497431 400.328188 
L 957.644399 437.372201 
L 958.791367 391.067185 
L 959.938335 360.197175 
L 961.085303 384.893183 
L 962.232271 366.371177 
L 963.379239 350.936172 
L 964.526208 366.371177 
L 965.673176 378.719181 
L 966.820144 347.849171 
L 967.967112 363.284176 
L 969.11408 366.371177 
L 970.261048 357.110174 
L 971.408016 375.63218 
L 973.701953 381.806182 
L 974.848921 375.63218 
L 975.995889 415.763194 
L 977.142857 415.763194 
L 978.289825 412.676193 
L 979.436793 421.937196 
L 980.583762 412.676193 
L 981.73073 409.589191 
L 982.877698 387.980184 
L 984.024666 403.415189 
L 985.171634 403.415189 
L 986.318602 412.676193 
L 987.46557 428.111198 
L 988.612539 418.850195 
L 989.759507 418.850195 
L 990.906475 415.763194 
L 992.053443 425.024197 
L 993.200411 412.676193 
L 994.347379 394.154186 
L 995.494347 384.893183 
L 996.641316 394.154186 
L 997.788284 406.50219 
L 998.935252 412.676193 
L 1000.08222 425.024197 
L 1001.229188 425.024197 
L 1002.376156 421.937196 
L 1003.523124 412.676193 
L 1004.670092 425.024197 
L 1005.817061 418.850195 
L 1006.964029 431.198199 
L 1008.110997 434.2852 
L 1009.257965 458.981208 
L 1010.404933 474.416213 
L 1012.698869 480.590215 
L 1014.992806 474.416213 
L 1016.139774 458.981208 
L 1017.286742 474.416213 
L 1018.43371 443.546203 
L 1019.580678 415.763194 
L 1020.727646 415.763194 
L 1021.874615 421.937196 
L 1023.021583 406.50219 
L 1024.168551 415.763194 
L 1025.315519 406.50219 
L 1026.462487 409.589191 
L 1027.609455 397.241187 
L 1028.756423 391.067185 
L 1029.903392 397.241187 
L 1031.05036 381.806182 
L 1032.197328 375.63218 
L 1033.344296 400.328188 
L 1034.491264 394.154186 
L 1035.638232 400.328188 
L 1036.7852 372.545179 
L 1037.932169 384.893183 
L 1039.079137 366.371177 
L 1040.226105 369.458178 
L 1041.373073 338.588168 
L 1042.520041 344.76217 
L 1043.667009 338.588168 
L 1044.813977 354.023173 
L 1045.960946 344.76217 
L 1047.107914 350.936172 
L 1048.254882 369.458178 
L 1049.40185 360.197175 
L 1050.548818 357.110174 
L 1051.695786 350.936172 
L 1052.842754 360.197175 
L 1053.989723 347.849171 
L 1055.136691 276.848147 
L 1056.283659 313.89216 
L 1057.430627 286.109151 
L 1058.577595 295.370154 
L 1059.724563 242.891136 
L 1060.871531 215.108127 
L 1062.018499 221.282129 
L 1063.165468 218.195128 
L 1064.312436 255.23914 
L 1065.459404 313.89216 
L 1066.606372 313.89216 
L 1067.75334 310.805159 
L 1068.900308 316.979161 
L 1070.047276 326.240164 
L 1071.194245 326.240164 
L 1072.341213 298.457155 
L 1073.488181 310.805159 
L 1074.635149 310.805159 
L 1075.782117 323.153163 
L 1076.929085 332.414166 
L 1078.076053 360.197175 
L 1079.223022 366.371177 
L 1080.36999 360.197175 
L 1081.516958 366.371177 
L 1082.663926 335.501167 
L 1083.810894 316.979161 
L 1084.957862 320.066162 
L 1086.10483 313.89216 
L 1087.251799 295.370154 
L 1088.398767 286.109151 
L 1089.545735 292.283153 
L 1090.692703 313.89216 
L 1091.839671 326.240164 
L 1092.986639 323.153163 
L 1094.133607 313.89216 
L 1095.280576 261.413142 
L 1096.427544 249.065138 
L 1097.574512 270.674145 
L 1098.72148 267.587144 
L 1099.868448 298.457155 
L 1101.015416 292.283153 
L 1102.162384 295.370154 
L 1103.309353 307.718158 
L 1104.456321 338.588168 
L 1105.603289 313.89216 
L 1106.750257 313.89216 
L 1107.897225 354.023173 
L 1109.044193 354.023173 
L 1111.338129 391.067185 
L 1112.485098 378.719181 
L 1113.632066 394.154186 
L 1114.779034 403.415189 
L 1115.926002 397.241187 
L 1117.07297 394.154186 
L 1118.219938 406.50219 
L 1119.366906 403.415189 
L 1120.513875 394.154186 
L 1121.660843 397.241187 
L 1122.807811 406.50219 
L 1123.954779 409.589191 
L 1126.248715 391.067185 
L 1127.395683 406.50219 
L 1128.542652 403.415189 
L 1129.68962 415.763194 
L 1130.836588 400.328188 
L 1131.983556 397.241187 
L 1133.130524 391.067185 
L 1134.277492 391.067185 
L 1135.42446 384.893183 
L 1136.571429 375.63218 
L 1137.718397 372.545179 
L 1140.012333 384.893183 
L 1141.159301 378.719181 
L 1142.306269 375.63218 
L 1143.453237 366.371177 
L 1144.600206 354.023173 
L 1145.747174 357.110174 
L 1146.894142 350.936172 
L 1148.04111 360.197175 
L 1149.188078 418.850195 
L 1150.335046 418.850195 
L 1151.482014 425.024197 
L 1152.628983 412.676193 
L 1153.775951 412.676193 
L 1154.922919 406.50219 
L 1156.069887 406.50219 
L 1157.216855 409.589191 
L 1158.363823 431.198199 
L 1159.510791 437.372201 
L 1160.65776 434.2852 
L 1161.804728 437.372201 
L 1162.951696 428.111198 
L 1165.245632 428.111198 
L 1167.539568 440.459202 
L 1168.686536 434.2852 
L 1172.127441 425.024197 
L 1173.274409 412.676193 
L 1174.421377 406.50219 
L 1175.568345 384.893183 
L 1176.715313 381.806182 
L 1177.862282 387.980184 
L 1179.00925 391.067185 
L 1180.156218 409.589191 
L 1181.303186 431.198199 
L 1182.450154 449.720205 
L 1183.597122 458.981208 
L 1184.74409 440.459202 
L 1185.891059 437.372201 
L 1187.038027 437.372201 
L 1188.184995 449.720205 
L 1189.331963 431.198199 
L 1190.478931 431.198199 
L 1192.772867 443.546203 
L 1193.919836 452.807206 
L 1195.066804 446.633204 
L 1196.213772 452.807206 
L 1197.36074 455.894207 
L 1198.507708 468.242211 
L 1199.654676 468.242211 
L 1200.801644 462.068209 
L 1201.948613 443.546203 
L 1203.095581 440.459202 
L 1204.242549 434.2852 
L 1205.389517 440.459202 
L 1206.536485 415.763194 
L 1207.683453 384.893183 
L 1208.830421 375.63218 
L 1211.124358 381.806182 
L 1212.271326 381.806182 
L 1213.418294 369.458178 
L 1215.71223 381.806182 
L 1216.859198 375.63218 
L 1218.006166 372.545179 
L 1219.153135 378.719181 
L 1220.300103 391.067185 
L 1221.447071 397.241187 
L 1222.594039 387.980184 
L 1223.741007 338.588168 
L 1224.887975 360.197175 
L 1226.034943 384.893183 
L 1228.32888 295.370154 
L 1229.475848 286.109151 
L 1230.622816 270.674145 
L 1231.769784 181.151116 
L 1232.916752 174.977114 
L 1234.06372 196.586121 
L 1235.210689 215.108127 
L 1236.357657 239.804135 
L 1237.504625 218.195128 
L 1238.651593 224.36913 
L 1239.798561 224.36913 
L 1240.945529 212.021126 
L 1243.239466 224.36913 
L 1244.386434 224.36913 
L 1245.533402 212.021126 
L 1246.68037 261.413142 
L 1247.827338 212.021126 
L 1248.974306 199.673122 
L 1250.121274 159.542109 
L 1251.268243 193.49912 
L 1252.415211 212.021126 
L 1253.562179 224.36913 
L 1254.709147 261.413142 
L 1255.856115 264.500143 
L 1257.003083 264.500143 
L 1258.150051 273.761146 
L 1259.29702 289.196152 
L 1260.443988 255.23914 
L 1261.590956 264.500143 
L 1262.737924 298.457155 
L 1263.884892 301.544156 
L 1265.03186 310.805159 
L 1266.178828 286.109151 
L 1268.472765 304.631157 
L 1269.619733 310.805159 
L 1270.766701 326.240164 
L 1271.913669 307.718158 
L 1273.060637 307.718158 
L 1274.207605 320.066162 
L 1275.354573 301.544156 
L 1277.64851 313.89216 
L 1278.795478 316.979161 
L 1279.942446 267.587144 
L 1281.089414 270.674145 
L 1282.236382 239.804135 
L 1283.38335 245.978137 
L 1284.530319 215.108127 
L 1285.677287 218.195128 
L 1286.824255 218.195128 
L 1287.971223 233.630133 
L 1289.118191 245.978137 
L 1291.412127 252.152139 
L 1292.559096 233.630133 
L 1293.706064 230.543132 
L 1294.853032 245.978137 
L 1296 239.804135 
L 1296 239.804135 
" style="fill:none;stroke:#ff7f0e;stroke-linecap:square;stroke-width:1.5;"/>
   </g>
   <g id="patch_3">
    <path d="M 180 768.96 
L 180 103.68 
" style="fill:none;stroke:#000000;stroke-linecap:square;stroke-linejoin:miter;stroke-width:0.8;"/>
   </g>
   <g id="patch_4">
    <path d="M 1296 768.96 
L 1296 103.68 
" style="fill:none;stroke:#000000;stroke-linecap:square;stroke-linejoin:miter;stroke-width:0.8;"/>
   </g>
   <g id="patch_5">
    <path d="M 180 768.96 
L 1296 768.96 
" style="fill:none;stroke:#000000;stroke-linecap:square;stroke-linejoin:miter;stroke-width:0.8;"/>
   </g>
   <g id="patch_6">
    <path d="M 180 103.68 
L 1296 103.68 
" style="fill:none;stroke:#000000;stroke-linecap:square;stroke-linejoin:miter;stroke-width:0.8;"/>
   </g>
  </g>
 </g>
 <defs>
  <clipPath id="p46b9c6acc6">
   <rect height="665.28" width="1116" x="180" y="103.68"/>
  </clipPath>
 </defs>
</svg>
